<svg preserveAspectRatio="none" width="100%" height="100%" overflow="visible" style="display: block;" viewBox="0 0 21 18" fill="none" xmlns="http://www.w3.org/2000/svg">
<g id="Group">
<path id="Vector" d="M11.0981 16.8909L11.0861 16.8929L11.0151 16.9279L10.9951 16.9319L10.9811 16.9279L10.9101 16.8919C10.8994 16.8893 10.8914 16.8913 10.8861 16.8979L10.8821 16.9079L10.8651 17.3359L10.8701 17.3559L10.8801 17.3689L10.9841 17.4429L10.9991 17.4469L11.0111 17.4429L11.1151 17.3689L11.1271 17.3529L11.1311 17.3359L11.1141 16.9089C11.1114 16.8983 11.1061 16.8923 11.0981 16.8909ZM11.3621 16.7779L11.3481 16.7799L11.1641 16.8729L11.1541 16.8829L11.1511 16.8939L11.1691 17.3239L11.1741 17.3359L11.1821 17.3439L11.3831 17.4359C11.3957 17.4393 11.4054 17.4366 11.4121 17.4279L11.4161 17.4139L11.3821 16.7999C11.3787 16.7873 11.3721 16.7799 11.3621 16.7779ZM10.6471 16.7799C10.6427 16.7773 10.6374 16.7764 10.6324 16.7775C10.6273 16.7786 10.6229 16.7816 10.6201 16.7859L10.6141 16.7999L10.5801 17.4139C10.5807 17.4259 10.5864 17.4339 10.5971 17.4379L10.6121 17.4359L10.8131 17.3429L10.8231 17.3349L10.8261 17.3239L10.8441 16.8939L10.8411 16.8819L10.8311 16.8719L10.6471 16.7799Z" fill="var(--fill-0, #0A0AFF)"/>
<path id="Vector_2" d="M16.6516 3.12164C14.8871 2.85334 13.0834 3.03495 11.4077 3.64964L11.0617 3.78163C8.79414 4.7006 6.32061 4.99079 3.90188 4.62162C2.8639 4.46162 1.78192 4.20362 0.833936 3.73063C0.488502 3.55945 0.222244 3.26183 0.0904173 2.89955C-0.0414097 2.53726 -0.0286826 2.13813 0.125957 1.78498C0.280597 1.43183 0.565275 1.15178 0.920913 1.00295C1.27655 0.85412 1.67584 0.847937 2.03591 0.985685L2.16791 1.04368C2.8499 1.36368 3.61788 1.54267 4.35787 1.65667C5.70185 1.86267 7.54081 1.87667 9.60177 1.12768L9.94777 0.995684C12.2154 0.0767186 14.6889 -0.213472 17.1076 0.1557C18.1456 0.315697 19.2266 0.574692 20.1736 1.04568C20.5274 1.22615 20.7961 1.5384 20.9218 1.91513C21.0475 2.29186 21.0201 2.7029 20.8456 3.05965C20.4766 3.79763 19.7236 3.96663 18.8406 3.73363L16.6516 3.12164ZM16.6516 9.12153C14.8871 8.85323 13.0834 9.03484 11.4077 9.64952L11.0617 9.78152C8.79414 10.7005 6.32061 10.9907 3.90188 10.6215C2.8639 10.4615 1.78192 10.2035 0.833936 9.73052C0.488502 9.55934 0.222244 9.26172 0.0904173 8.89944C-0.0414097 8.53715 -0.0286826 8.13802 0.125957 7.78487C0.280597 7.43172 0.565275 7.15167 0.920913 7.00284C1.27655 6.85401 1.67584 6.84783 2.03591 6.98557L2.16791 7.04357C2.8499 7.36357 3.61788 7.54256 4.35787 7.65656C5.70185 7.86256 7.54081 7.87656 9.60177 7.12757L9.94777 6.99557C12.2154 6.07661 14.6889 5.78642 17.1076 6.15559C18.1456 6.31559 19.2266 6.57458 20.1736 7.04557C20.5274 7.22604 20.7961 7.53829 20.9218 7.91502C21.0475 8.29175 21.0201 8.70279 20.8456 9.05953C20.4766 9.79852 19.7236 9.96652 18.8406 9.73352L16.6516 9.12153ZM10.6978 15.9214L11.0617 15.7814C12.8315 15.0617 14.7629 14.8336 16.6516 15.1214L18.8416 15.7334C19.7236 15.9664 20.4766 15.7984 20.8466 15.0594C21.0207 14.7027 21.0478 14.2918 20.9219 13.9153C20.796 13.5388 20.5273 13.2268 20.1736 13.0465C19.2266 12.5745 18.1456 12.3165 17.1076 12.1565C14.8194 11.8076 12.4799 12.0485 10.3108 12.8565L9.94777 12.9965C7.74581 13.8764 5.77584 13.8744 4.35787 13.6564C3.72388 13.5585 3.06789 13.4135 2.46491 13.1725L2.16791 13.0425C1.81147 12.8656 1.39935 12.8375 1.02222 12.9645C0.645092 13.0914 0.333844 13.363 0.156948 13.7194C-0.0199479 14.0759 -0.0480019 14.488 0.0789579 14.8651C0.205918 15.2423 0.477491 15.5535 0.833936 15.7304C1.78092 16.2034 2.8639 16.4614 3.90188 16.6204C5.65385 16.8904 8.0448 16.9004 10.6978 15.9204V15.9214Z" fill="var(--fill-0, #0A0AFF)"/>
</g>
</svg>
