<svg preserveAspectRatio="none" width="100%" height="100%" overflow="visible" style="display: block;" viewBox="0 0 369 58" fill="none" xmlns="http://www.w3.org/2000/svg">
<path id="Vector" d="M1 14.6428L4.59124 15.303L8.18248 16.2803L11.7737 17.5593L15.365 19.1198L18.9562 20.9371L22.5474 22.9827L26.1387 25.2242L29.7299 27.6264L33.3212 30.1512L36.9124 32.759L40.5037 35.4086L44.0949 38.0582L47.6861 40.666L51.2774 43.1908L54.8686 45.593L58.4599 47.8345L62.0511 49.8801L65.6423 51.6974L69.2336 53.2579L72.8248 54.5369L76.4161 55.5142L80.0073 56.1744L83.5985 56.5071H87.1898L90.781 56.1744L94.3723 55.5142L97.9635 54.5369L101.555 53.2579L105.146 51.6974L108.737 49.8801L112.328 47.8345L115.92 45.593L119.511 43.1908L123.102 40.666L126.693 38.0582L130.285 35.4086L133.876 32.759L137.467 30.1512L141.058 27.6264L144.65 25.2242L148.241 22.9827L151.832 20.9371L155.423 19.1198L159.015 17.5593L162.606 16.2803L166.197 15.303L169.788 14.6428L173.38 14.3101H176.971L180.562 14.6428L184.153 15.303L187.745 16.2803L191.336 17.5593L194.927 19.1198L198.518 20.9371L202.109 22.9827L205.701 25.2242L209.292 27.6264L212.883 30.1512L216.474 32.759L220.066 35.4086L223.657 38.0582L227.248 40.666L230.839 43.1908L234.431 45.593L238.022 47.8345L241.613 49.8801L245.204 51.6974L248.796 53.2579L252.387 54.5369L255.978 55.5142L259.569 56.1744L263.161 56.5071H266.752L270.343 56.1744L273.934 55.5142L277.526 54.5369L281.117 53.2579L284.708 51.6974L288.299 49.8801L291.891 47.8345L295.482 45.593L299.073 43.1908L302.664 40.666L306.255 38.0582L367.807 1" stroke="var(--stroke-0, #0000BF)" stroke-width="1.79562"/>
</svg>
