<svg preserveAspectRatio="none" width="100%" height="100%" overflow="visible" style="display: block;" viewBox="0 0 2 3" fill="none" xmlns="http://www.w3.org/2000/svg">
<g id="Group Rain drop">
<path id="Path 8" d="M0.968424 7.56866e-06C1.05536 0.000985567 1.93653 1.37687 1.93653 1.91156C1.93653 2.16832 1.83454 2.41456 1.65298 2.59612C1.47142 2.77767 1.22518 2.87967 0.968424 2.87967C0.711665 2.87967 0.465422 2.77767 0.283866 2.59612C0.10231 2.41456 0.000313352 2.16832 0.000313352 1.91156C0.000313352 1.37692 0.881545 -0.00097043 0.968424 7.56866e-06Z" fill="var(--fill-0, #42A0F0)"/>
<path id="Ellipse 12" d="M0.230127 2.27347C0.326863 2.30305 0.449804 2.1814 0.504725 2.00176C0.559646 1.82212 0.525749 1.65252 0.429014 1.62294C0.332279 1.59337 0.209337 1.71502 0.154416 1.89466C0.0994954 2.0743 0.133392 2.2439 0.230127 2.27347Z" fill="var(--fill-0, white)"/>
</g>
</svg>
