<svg preserveAspectRatio="none" width="100%" height="100%" overflow="visible" style="display: block;" viewBox="0 0 2 3" fill="none" xmlns="http://www.w3.org/2000/svg">
<g id="Group Rain drop">
<path id="Path 8" d="M0.968066 5.20353e-07C1.055 0.000978519 1.93618 1.37686 1.93618 1.91155C1.93618 2.16831 1.83418 2.41456 1.65262 2.59611C1.47107 2.77767 1.22483 2.87966 0.968066 2.87966C0.711308 2.87966 0.465065 2.77767 0.283509 2.59611C0.101953 2.41456 -4.39179e-05 2.16831 -4.39179e-05 1.91155C-4.39179e-05 1.37691 0.881187 -0.000977478 0.968066 5.20353e-07Z" fill="var(--fill-0, #42A0F0)"/>
<path id="Ellipse 12" d="M0.23107 2.27314C0.327806 2.30272 0.450747 2.18107 0.505668 2.00143C0.560589 1.82179 0.526692 1.65219 0.429957 1.62261C0.333222 1.59304 0.21028 1.71469 0.155359 1.89433C0.100438 2.07396 0.134335 2.24357 0.23107 2.27314Z" fill="var(--fill-0, white)"/>
</g>
</svg>
