<svg preserveAspectRatio="none" width="100%" height="100%" overflow="visible" style="display: block;" viewBox="0 0 20 20" fill="none" xmlns="http://www.w3.org/2000/svg">
<g id="clarity:avatar-solid" clip-path="url(#clip0_4199_4910)">
<path id="Vector" d="M17.0056 13.6222C16.1129 12.655 15.0296 11.8831 13.8239 11.3552C12.6182 10.8272 11.3162 10.5547 10 10.5547C8.68379 10.5547 7.38184 10.8272 6.17614 11.3552C4.97045 11.8831 3.88714 12.655 2.99444 13.6222C2.85617 13.7743 2.779 13.9722 2.77778 14.1778V17.5111C2.7807 17.7302 2.86978 17.9393 3.02575 18.0932C3.18171 18.2471 3.39201 18.3334 3.61111 18.3333H16.3889C16.6099 18.3333 16.8219 18.2455 16.9781 18.0893C17.1344 17.933 17.2222 17.721 17.2222 17.5V14.1667C17.2183 13.9649 17.1413 13.7715 17.0056 13.6222Z" fill="var(--fill-0, #ADADAD)"/>
<path id="Vector_2" d="M10 9.44444C12.1478 9.44444 13.8889 7.70333 13.8889 5.55556C13.8889 3.40778 12.1478 1.66667 10 1.66667C7.85223 1.66667 6.11111 3.40778 6.11111 5.55556C6.11111 7.70333 7.85223 9.44444 10 9.44444Z" fill="var(--fill-0, #ADADAD)"/>
<g id="Vector_3">
</g>
</g>
<defs>
<clipPath id="clip0_4199_4910">
<rect width="20" height="20" fill="white"/>
</clipPath>
</defs>
</svg>
