<svg preserveAspectRatio="none" width="100%" height="100%" overflow="visible" style="display: block;" viewBox="0 0 26 26" fill="none" xmlns="http://www.w3.org/2000/svg">
<g id="fluent:weather-partly-cloudy-day-16-filled">
<path id="Vector" d="M14.6234 9.75C13.2558 9.75004 11.9339 10.2429 10.9001 11.1382C9.86632 12.0335 9.18975 13.2714 8.99437 14.625H8.9375C7.86006 14.625 6.82675 15.053 6.06488 15.8149C5.30301 16.5767 4.875 17.6101 4.875 18.6875C4.875 19.7649 5.30301 20.7983 6.06488 21.5601C6.82675 22.322 7.86006 22.75 8.9375 22.75H20.3125C21.3899 22.75 22.4233 22.322 23.1851 21.5601C23.947 20.7983 24.375 19.7649 24.375 18.6875C24.375 17.6101 23.947 16.5767 23.1851 15.8149C22.4233 15.053 21.3899 14.625 20.3125 14.625H20.2524C20.057 13.2717 19.3807 12.034 18.3472 11.1387C17.3138 10.2434 15.9923 9.75043 14.625 9.75M14.2805 4.5825C14.3306 4.48828 14.3617 4.38511 14.372 4.27888C14.3823 4.17265 14.3716 4.06543 14.3404 3.96335C14.3092 3.86127 14.2583 3.76632 14.1904 3.68394C14.1226 3.60155 14.0392 3.53334 13.9449 3.48319C13.8507 3.43304 13.7476 3.40194 13.6413 3.39166C13.5351 3.38139 13.4279 3.39213 13.3258 3.42329C13.2237 3.45445 13.1288 3.50541 13.0464 3.57327C12.964 3.64112 12.8958 3.72453 12.8456 3.81875L12.1534 5.12363C12.0521 5.3139 12.0306 5.53662 12.0935 5.74278C12.1564 5.94894 12.2987 6.12166 12.4889 6.22294C12.6792 6.32422 12.9019 6.34576 13.1081 6.28283C13.3143 6.2199 13.487 6.07765 13.5882 5.88737L14.2805 4.5825ZM8.151 3.36862C8.11974 3.26651 8.06867 3.17156 8.00071 3.08919C7.93275 3.00681 7.84923 2.93863 7.75492 2.88853C7.66061 2.83843 7.55736 2.8074 7.45106 2.79721C7.34475 2.78702 7.23749 2.79786 7.13537 2.82912C7.03326 2.86039 6.93831 2.91146 6.85594 2.97942C6.77356 3.04738 6.70538 3.13089 6.65528 3.2252C6.60518 3.31951 6.57415 3.42277 6.56396 3.52907C6.55377 3.63537 6.56461 3.74264 6.59587 3.84475L7.02975 5.2585C7.09528 5.46162 7.23809 5.6308 7.42733 5.72948C7.61657 5.82816 7.83704 5.84842 8.0411 5.78588C8.24515 5.72334 8.41641 5.58302 8.51785 5.39525C8.6193 5.20748 8.64279 4.98733 8.58325 4.78238L8.151 3.36862ZM4.875 11.375C4.875 12.3565 5.16588 13.2698 5.66475 14.0351C6.26113 13.6143 6.94362 13.3039 7.67975 13.1398C8.10208 11.8688 8.8646 10.7379 9.88449 9.86981C10.9044 9.00176 12.1426 8.42978 13.4647 8.216C12.8185 7.45551 11.9543 6.91171 10.9891 6.65804C10.0239 6.40437 9.00401 6.45306 8.06733 6.79754C7.13065 7.14202 6.32227 7.76568 5.75137 8.58428C5.18048 9.40289 4.87458 10.377 4.875 11.375ZM2.9575 6.84775C2.86328 6.7976 2.76011 6.7665 2.65388 6.75622C2.54765 6.74595 2.44043 6.7567 2.33835 6.78786C2.23627 6.81902 2.14132 6.86998 2.05894 6.93783C1.97655 7.00568 1.90834 7.0891 1.85819 7.18331C1.80804 7.27753 1.77694 7.3807 1.76666 7.48693C1.75639 7.59317 1.76713 7.70039 1.79829 7.80247C1.82945 7.90455 1.88041 7.99949 1.94827 8.08188C2.01612 8.16426 2.09953 8.23248 2.19375 8.28263L3.49863 8.97487C3.6889 9.07615 3.91162 9.0977 4.11778 9.03477C4.32394 8.97184 4.49666 8.82959 4.59794 8.63931C4.69922 8.44904 4.72076 8.22632 4.65783 8.02016C4.5949 7.814 4.45265 7.64128 4.26237 7.54L2.9575 6.84775ZM3.6335 14.1001C3.83662 14.0346 4.0058 13.8918 4.10448 13.7025C4.20316 13.5133 4.22342 13.2928 4.16088 13.0888C4.09834 12.8847 3.95802 12.7135 3.77025 12.612C3.58248 12.5106 3.36233 12.4871 3.15737 12.5466L1.74362 12.9789C1.6402 13.0089 1.54378 13.0592 1.45997 13.1269C1.37617 13.1945 1.30664 13.2782 1.25545 13.3729C1.20426 13.4677 1.17241 13.5717 1.16177 13.6788C1.15113 13.786 1.1619 13.8942 1.19346 13.9972C1.22502 14.1002 1.27674 14.1959 1.34561 14.2787C1.41448 14.3615 1.49912 14.4298 1.59462 14.4795C1.69012 14.5293 1.79456 14.5597 1.90188 14.5687C2.0092 14.5778 2.11725 14.5654 2.21975 14.5324L3.6335 14.1001Z" fill="var(--fill-0, #0A0AFF)"/>
</g>
</svg>
