<svg preserveAspectRatio="none" width="100%" height="100%" overflow="visible" style="display: block;" viewBox="0 0 6 9" fill="none" xmlns="http://www.w3.org/2000/svg">
<g id="Group Rain drop">
<path id="Path 8" d="M2.97452 1.50152e-06C3.24167 0.00337572 5.94905 4.22127 5.94905 5.86056C5.94905 6.64773 5.63566 7.40266 5.07783 7.95927C4.52 8.51589 3.76342 8.82859 2.97452 8.82859C2.18563 8.82859 1.42905 8.51589 0.871218 7.95927C0.313387 7.40266 1.17554e-08 6.64773 0 5.86056C0 4.22127 2.70761 -0.00290731 2.97452 1.50152e-06Z" fill="var(--fill-0, #0095FF)"/>
<path id="Ellipse 12" d="M0.706737 6.96997C1.00395 7.06064 1.3817 6.68763 1.55046 6.13684C1.71923 5.58605 1.6151 5.06604 1.31788 4.97537C1.02067 4.8847 0.642916 5.2577 0.474153 5.8085C0.305391 6.35929 0.409522 6.8793 0.706737 6.96997Z" fill="var(--fill-0, white)"/>
</g>
</svg>
