<svg preserveAspectRatio="none" width="100%" height="100%" overflow="visible" style="display: block;" viewBox="0 0 33 29" fill="none" xmlns="http://www.w3.org/2000/svg">
<path id="Vector" d="M32.7587 27.0379L17.4764 0.587781C17.2486 0.194702 16.8555 0 16.4588 0C16.062 0 15.6653 0.194702 15.4412 0.587781L0.158897 27.0379C-0.29296 27.8241 0.272779 28.8013 1.17649 28.8013H31.7411C32.6448 28.8013 33.2106 27.8241 32.7587 27.0379ZM15.2832 10.8739C15.2832 10.7123 15.4155 10.5801 15.5771 10.5801H17.3405C17.5021 10.5801 17.6344 10.7123 17.6344 10.8739V17.6334C17.6344 17.7951 17.5021 17.9273 17.3405 17.9273H15.5771C15.4155 17.9273 15.2832 17.7951 15.2832 17.6334V10.8739ZM16.4588 23.8051C15.9974 23.7957 15.558 23.6058 15.235 23.2761C14.912 22.9465 14.7311 22.5033 14.7311 22.0418C14.7311 21.5803 14.912 21.1371 15.235 20.8074C15.558 20.4778 15.9974 20.2879 16.4588 20.2784C16.9202 20.2879 17.3596 20.4778 17.6826 20.8074C18.0056 21.1371 18.1865 21.5803 18.1865 22.0418C18.1865 22.5033 18.0056 22.9465 17.6826 23.2761C17.3596 23.6058 16.9202 23.7957 16.4588 23.8051Z" fill="var(--fill-0, #FFC550)"/>
</svg>
