<svg preserveAspectRatio="none" width="100%" height="100%" overflow="visible" style="display: block;" viewBox="0 0 6 9" fill="none" xmlns="http://www.w3.org/2000/svg">
<g id="Group Rain drop">
<path id="Path 8" d="M2.97452 1.50152e-06C3.24167 0.00337572 5.94905 4.22127 5.94905 5.86056C5.94905 6.64773 5.63566 7.40266 5.07783 7.95927C4.52 8.51589 3.76342 8.82859 2.97452 8.82859C2.18563 8.82859 1.42905 8.51589 0.871218 7.95927C0.313387 7.40266 1.17554e-08 6.64773 0 5.86056C0 4.22127 2.70761 -0.00290731 2.97452 1.50152e-06Z" fill="var(--fill-0, #0095FF)"/>
<path id="Ellipse 12" d="M0.7069 6.97003C1.00412 7.0607 1.38186 6.6877 1.55063 6.1369C1.71939 5.58611 1.61526 5.0661 1.31804 4.97543C1.02083 4.88476 0.643079 5.25777 0.474316 5.80856C0.305554 6.35935 0.409685 6.87936 0.7069 6.97003Z" fill="var(--fill-0, white)"/>
</g>
</svg>
