<svg preserveAspectRatio="none" width="100%" height="100%" overflow="visible" style="display: block;" viewBox="0 0 20 12" fill="none" xmlns="http://www.w3.org/2000/svg">
<g id="Union shadow">
<path id="Vector" d="M14.2235 11.9364H3.8839C2.88088 11.9357 1.91704 11.5469 1.19415 10.8516C0.471267 10.1563 0.0453813 9.20823 0.00565487 8.20599C-0.0340716 7.20374 0.315441 6.22498 0.981024 5.4746C1.64661 4.72423 2.57666 4.26041 3.57647 4.18026C3.71905 3.17347 4.17368 2.23672 4.8764 1.50178C5.57913 0.766854 6.49458 0.270735 7.49397 0.0832259C8.49335 -0.104284 9.52638 0.0262528 10.4477 0.456471C11.369 0.886688 12.1323 1.59494 12.6301 2.48157C13.5432 2.16549 14.5297 2.12856 15.4639 2.37549C16.398 2.62242 17.2375 3.14201 17.8751 3.868C18.5127 4.59398 18.9197 5.49345 19.044 6.45166C19.1683 7.40988 19.0044 8.38341 18.5731 9.24808C18.3201 10.0293 17.826 10.7102 17.1619 11.1932C16.4978 11.6762 15.6978 11.9364 14.8766 11.9364H14.2235Z" fill="url(#paint0_linear_4199_5052)"/>
<path id="Vector_2" d="M14.8768 11.8825C15.2938 11.8825 15.7037 11.816 16.0953 11.6847C16.4739 11.5577 16.8294 11.3724 17.1518 11.134C17.4705 10.8982 17.7499 10.6159 17.9823 10.2947C18.2175 9.96957 18.399 9.61188 18.522 9.23159L18.5232 9.2277L18.5251 9.22403C18.6886 8.89736 18.8145 8.55179 18.8993 8.19693C18.9865 7.83178 19.0308 7.45446 19.0308 7.07544C19.0308 6.74925 18.9979 6.42328 18.9331 6.10659C18.87 5.79797 18.7757 5.4944 18.653 5.20432C18.5326 4.91949 18.3835 4.64477 18.2098 4.38779C18.0379 4.13323 17.8404 3.89385 17.6228 3.67631C17.4053 3.45876 17.1659 3.26126 16.9114 3.08928C16.6544 2.91567 16.3797 2.76655 16.0948 2.64608C15.8048 2.52338 15.5012 2.42915 15.1926 2.366C14.8759 2.30119 14.5499 2.26833 14.2237 2.26833C13.6836 2.26833 13.1535 2.35722 12.648 2.53252L12.6054 2.54731L12.5833 2.50796C12.1719 1.77653 11.5736 1.16227 10.853 0.731588C10.4885 0.513778 10.097 0.345463 9.6892 0.231317C9.26853 0.113558 8.83157 0.0538496 8.39047 0.0538496C7.79716 0.0538496 7.21801 0.160632 6.66908 0.371229C6.13879 0.574674 5.65233 0.868558 5.22322 1.24472C4.79657 1.61871 4.4425 2.05999 4.17086 2.55629C3.89254 3.06478 3.71064 3.61366 3.6302 4.18768L3.62418 4.23065L3.58092 4.23404C3.09707 4.27191 2.63155 4.3993 2.19729 4.61267C1.77533 4.82 1.39854 5.10042 1.07737 5.44615C0.417449 6.15654 0.0540117 7.08212 0.0540117 8.05238C0.0540117 8.56947 0.155271 9.07106 0.35498 9.54323C0.450968 9.77017 0.569777 9.98906 0.708106 10.1938C0.845131 10.3966 1.0025 10.5874 1.17583 10.7607C1.34916 10.934 1.53989 11.0914 1.74272 11.2284C1.94747 11.3668 2.16636 11.4856 2.39329 11.5816C2.86545 11.7813 3.36704 11.8825 3.88413 11.8825H14.2237H14.8768ZM14.8768 11.9366H14.2237H3.88413C1.73899 11.9366 0 10.1975 0 8.05238C0 6.01065 1.57523 4.33686 3.57671 4.18019C3.90777 1.81775 5.9368 -0.00016276 8.39047 -0.00016276C10.2108 -0.00016276 11.7974 1.00032 12.6303 2.48149C13.1295 2.30836 13.6656 2.21432 14.2237 2.21432C16.9084 2.21432 19.0848 4.39074 19.0848 7.07544C19.0848 7.85641 18.9007 8.59433 18.5734 9.24821C18.0691 10.8082 16.6047 11.9366 14.8768 11.9366Z" fill="var(--fill-0, white)" fill-opacity="0.5"/>
</g>
<defs>
<linearGradient id="paint0_linear_4199_5052" x1="9.54351" y1="-0.00016276" x2="15.0875" y2="13.4037" gradientUnits="userSpaceOnUse">
<stop stop-color="white" stop-opacity="0.604"/>
<stop offset="1" stop-color="white" stop-opacity="0.2"/>
</linearGradient>
</defs>
</svg>
