<svg preserveAspectRatio="none" width="100%" height="100%" overflow="visible" style="display: block;" viewBox="0 0 17 17" fill="none" xmlns="http://www.w3.org/2000/svg">
<path id="Vector" fill-rule="evenodd" clip-rule="evenodd" d="M8.24242 16.4848C10.4285 16.4848 12.5249 15.6165 14.0707 14.0707C15.6165 12.5249 16.4848 10.4284 16.4848 8.24242C16.4848 6.0564 15.6165 3.9599 14.0707 2.41415C12.5249 0.868396 10.4285 0 8.24242 0C6.0564 0 3.9599 0.868396 2.41415 2.41415C0.868396 3.9599 0 6.0564 0 8.24242C0 10.4284 0.868396 12.5249 2.41415 14.0707C3.9599 15.6165 6.0564 16.4848 8.24242 16.4848ZM8.97085 5.87994C9.15853 5.68562 9.26238 5.42536 9.26003 5.15522C9.25768 4.88508 9.14933 4.62667 8.9583 4.43564C8.76727 4.24461 8.50886 4.13626 8.23872 4.13391C7.96857 4.13156 7.70832 4.23541 7.514 4.42309L4.42309 7.514C4.22994 7.70721 4.12143 7.96922 4.12143 8.24242C4.12143 8.51562 4.22994 8.77764 4.42309 8.97085L7.514 12.0618C7.70832 12.2494 7.96857 12.3533 8.23872 12.3509C8.50886 12.3486 8.76727 12.2402 8.9583 12.0492C9.14933 11.8582 9.25768 11.5998 9.26003 11.3296C9.26238 11.0595 9.15853 10.7992 8.97085 10.6049L7.63867 9.27273H11.3333C11.6066 9.27273 11.8686 9.16418 12.0619 8.97096C12.2551 8.77774 12.3636 8.51568 12.3636 8.24242C12.3636 7.96917 12.2551 7.70711 12.0619 7.51389C11.8686 7.32067 11.6066 7.21212 11.3333 7.21212H7.63867L8.97085 5.87994Z" fill="var(--fill-0, #0A0AFF)"/>
</svg>
