<svg preserveAspectRatio="none" width="100%" height="100%" overflow="visible" style="display: block;" viewBox="0 0 28 28" fill="none" xmlns="http://www.w3.org/2000/svg">
<g id="carbon:user-avatar-filled">
<g id="Vector">
</g>
<path id="Vector_2" d="M23.4054 21.8138C24.662 20.3018 25.536 18.5095 25.9534 16.5884C26.3708 14.6673 26.3194 12.6739 25.8035 10.7769C25.2876 8.87983 24.3223 7.13495 22.9894 5.68984C21.6566 4.24473 19.9952 3.14191 18.146 2.47466C16.2967 1.80741 14.314 1.59537 12.3655 1.85647C10.4169 2.11757 8.55996 2.84413 6.95162 3.97469C5.34329 5.10525 4.0309 6.60655 3.12549 8.35159C2.22008 10.0966 1.74828 12.0341 1.75 14C1.75074 16.8579 2.75784 19.6243 4.59463 21.8138L4.57713 21.8286C4.63838 21.9021 4.70838 21.9651 4.77138 22.0378C4.85013 22.1279 4.935 22.2127 5.01637 22.3002C5.26021 22.5668 5.51396 22.8206 5.77763 23.0615C5.85929 23.1338 5.94096 23.2044 6.02262 23.2732C6.30262 23.5153 6.59138 23.7434 6.88888 23.9575C6.92738 23.9837 6.96238 24.0179 7.00088 24.045V24.0345C9.05017 25.4768 11.4949 26.2508 14.0009 26.2508C16.5068 26.2508 18.9516 25.4768 21.0009 24.0345V24.045C21.0394 24.0179 21.0735 23.9837 21.1129 23.9575C21.4104 23.7428 21.6991 23.5147 21.9791 23.2732C22.0608 23.2038 22.1425 23.1333 22.2241 23.0615C22.4872 22.8206 22.741 22.5668 22.9854 22.3002C23.0667 22.2127 23.1508 22.1279 23.2304 22.0378C23.2925 21.9651 23.3634 21.9021 23.4246 21.8277L23.4054 21.8138ZM14 7C14.7788 7 15.54 7.23093 16.1876 7.66359C16.8351 8.09625 17.3398 8.7112 17.6378 9.43068C17.9358 10.1502 18.0138 10.9419 17.8618 11.7057C17.7099 12.4695 17.3349 13.1711 16.7842 13.7217C16.2336 14.2724 15.532 14.6474 14.7682 14.7993C14.0044 14.9513 13.2127 14.8733 12.4932 14.5753C11.7737 14.2773 11.1587 13.7726 10.7261 13.1251C10.2934 12.4775 10.0625 11.7163 10.0625 10.9375C10.0625 9.89321 10.4773 8.89169 11.2158 8.15327C11.9542 7.41484 12.9557 7 14 7ZM7.00612 21.8138C7.0213 20.6648 7.4882 19.5681 8.30581 18.7608C9.12342 17.9535 10.226 17.5006 11.375 17.5H16.625C17.774 17.5006 18.8766 17.9535 19.6942 18.7608C20.5118 19.5681 20.9787 20.6648 20.9939 21.8138C19.0749 23.543 16.5832 24.5001 14 24.5001C11.4168 24.5001 8.92514 23.543 7.00612 21.8138Z" fill="var(--fill-0, #ADADAD)"/>
</g>
</svg>
