<svg preserveAspectRatio="none" width="100%" height="100%" overflow="visible" style="display: block;" viewBox="0 0 2 3" fill="none" xmlns="http://www.w3.org/2000/svg">
<g id="Group Rain drop">
<path id="Path 8" d="M0.968547 5.20352e-07C1.05548 0.000978519 1.93666 1.37686 1.93666 1.91155C1.93666 2.16831 1.83466 2.41456 1.6531 2.59611C1.47155 2.77767 1.22531 2.87966 0.968547 2.87966C0.711788 2.87966 0.465546 2.77767 0.28399 2.59611C0.102434 2.41456 0.000436853 2.16831 0.000436853 1.91155C0.000436853 1.37691 0.881668 -0.000977478 0.968547 5.20352e-07Z" fill="var(--fill-0, #42A0F0)"/>
<path id="Ellipse 12" d="M0.230349 2.27314C0.327084 2.30272 0.450026 2.18107 0.504947 2.00143C0.559868 1.82179 0.525971 1.65219 0.429235 1.62261C0.3325 1.59304 0.209559 1.71469 0.154638 1.89433C0.0997168 2.07396 0.133614 2.24357 0.230349 2.27314Z" fill="var(--fill-0, white)"/>
</g>
</svg>
