<svg preserveAspectRatio="none" width="100%" height="100%" overflow="visible" style="display: block;" viewBox="0 0 18 18" fill="none" xmlns="http://www.w3.org/2000/svg">
<g id="mynaui:sunrise-solid">
<path id="Vector" d="M6.74625 10.8712C7.19203 10.4255 7.75996 10.122 8.37823 9.99904C8.99651 9.87607 9.63736 9.93919 10.2198 10.1804C10.8022 10.4217 11.3 10.8302 11.6502 11.3543C12.0005 11.8784 12.1874 12.4946 12.1875 13.125C12.1875 13.2742 12.1282 13.4173 12.0227 13.5227C11.9173 13.6282 11.7742 13.6875 11.625 13.6875H6.375C6.22582 13.6875 6.08274 13.6282 5.97725 13.5227C5.87176 13.4173 5.8125 13.2742 5.8125 13.125C5.81258 12.2797 6.14846 11.469 6.74625 10.8712ZM4.026 8.151C4.13147 8.04566 4.27444 7.98649 4.4235 7.98649C4.57256 7.98649 4.71553 8.04566 4.821 8.151L5.7795 9.1095C5.87886 9.21613 5.93295 9.35717 5.93038 9.50289C5.92781 9.64862 5.86878 9.78766 5.76572 9.89072C5.66266 9.99378 5.52362 10.0528 5.37789 10.0554C5.23217 10.058 5.09113 10.0039 4.9845 9.9045L4.026 8.946C3.92066 8.84053 3.8615 8.69756 3.8615 8.5485C3.8615 8.39944 3.92066 8.25647 4.026 8.151ZM1.6875 13.05C1.6875 12.9008 1.74676 12.7577 1.85225 12.6523C1.95774 12.5468 2.10082 12.4875 2.25 12.4875H3.6C3.74918 12.4875 3.89226 12.5468 3.99775 12.6523C4.10324 12.7577 4.1625 12.9008 4.1625 13.05C4.1625 13.1992 4.10324 13.3423 3.99775 13.4477C3.89226 13.5532 3.74918 13.6125 3.6 13.6125H2.25C2.10082 13.6125 1.95774 13.5532 1.85225 13.4477C1.74676 13.3423 1.6875 13.1992 1.6875 13.05ZM13.6875 13.05C13.6875 12.9008 13.7468 12.7577 13.8523 12.6523C13.9577 12.5468 14.1008 12.4875 14.25 12.4875H15.6C15.7492 12.4875 15.8923 12.5468 15.9977 12.6523C16.1032 12.7577 16.1625 12.9008 16.1625 13.05C16.1625 13.1992 16.1032 13.3423 15.9977 13.4477C15.8923 13.5532 15.7492 13.6125 15.6 13.6125H14.25C14.1008 13.6125 13.9577 13.5532 13.8523 13.4477C13.7468 13.3423 13.6875 13.1992 13.6875 13.05ZM13.824 8.151C13.9293 8.25647 13.9885 8.39944 13.9885 8.5485C13.9885 8.69756 13.9293 8.84053 13.824 8.946L12.8655 9.9045C12.7589 10.0039 12.6178 10.058 12.4721 10.0554C12.3264 10.0528 12.1873 9.99378 12.0843 9.89072C11.9812 9.78766 11.9222 9.64862 11.9196 9.50289C11.917 9.35717 11.9711 9.21613 12.0705 9.1095L13.029 8.151C13.1345 8.04566 13.2774 7.98649 13.4265 7.98649C13.5756 7.98649 13.7185 8.04566 13.824 8.151ZM1.6875 15.75C1.6875 15.6008 1.74676 15.4577 1.85225 15.3523C1.95774 15.2468 2.10082 15.1875 2.25 15.1875H15.75C15.8992 15.1875 16.0423 15.2468 16.1477 15.3523C16.2532 15.4577 16.3125 15.6008 16.3125 15.75C16.3125 15.8992 16.2532 16.0423 16.1477 16.1477C16.0423 16.2532 15.8992 16.3125 15.75 16.3125H2.25C2.10082 16.3125 1.95774 16.2532 1.85225 16.1477C1.74676 16.0423 1.6875 15.8992 1.6875 15.75ZM8.925 1.6875C9.07413 1.68763 9.21711 1.74698 9.3225 1.8525L12.0225 4.5525C12.1219 4.65913 12.176 4.80017 12.1734 4.94589C12.1708 5.09162 12.1118 5.23066 12.0087 5.33372C11.9057 5.43678 11.7666 5.49581 11.6209 5.49838C11.4752 5.50095 11.3341 5.44686 11.2275 5.3475L9.4875 3.6075V7.5C9.4875 7.64918 9.42824 7.79226 9.32275 7.89775C9.21726 8.00324 9.07418 8.0625 8.925 8.0625C8.77582 8.0625 8.63274 8.00324 8.52725 7.89775C8.42176 7.79226 8.3625 7.64918 8.3625 7.5V3.6075L6.6225 5.3475C6.51587 5.44686 6.37483 5.50095 6.22911 5.49838C6.08338 5.49581 5.94434 5.43678 5.84128 5.33372C5.73822 5.23066 5.67919 5.09162 5.67662 4.94589C5.67405 4.80017 5.72814 4.65913 5.8275 4.5525L8.5275 1.8525C8.63289 1.74698 8.77587 1.68763 8.925 1.6875Z" fill="var(--fill-0, black)"/>
</g>
</svg>
