<svg preserveAspectRatio="none" width="100%" height="100%" overflow="visible" style="display: block;" viewBox="0 0 20 20" fill="none" xmlns="http://www.w3.org/2000/svg">
<path id="Vector" fill-rule="evenodd" clip-rule="evenodd" d="M9.6 19.2C12.1461 19.2 14.5879 18.1886 16.3882 16.3882C18.1886 14.5879 19.2 12.1461 19.2 9.6C19.2 7.05392 18.1886 4.61212 16.3882 2.81178C14.5879 1.01143 12.1461 0 9.6 0C7.05392 0 4.61212 1.01143 2.81178 2.81178C1.01143 4.61212 0 7.05392 0 9.6C0 12.1461 1.01143 14.5879 2.81178 16.3882C4.61212 18.1886 7.05392 19.2 9.6 19.2ZM10.4484 6.8484C10.667 6.62208 10.7879 6.31895 10.7852 6.00432C10.7825 5.68968 10.6563 5.38871 10.4338 5.16622C10.2113 4.94373 9.91032 4.81753 9.59568 4.81479C9.28105 4.81206 8.97792 4.93301 8.7516 5.1516L5.1516 8.7516C4.92664 8.97663 4.80026 9.2818 4.80026 9.6C4.80026 9.9182 4.92664 10.2234 5.1516 10.4484L8.7516 14.0484C8.97792 14.267 9.28105 14.3879 9.59568 14.3852C9.91032 14.3825 10.2113 14.2563 10.4338 14.0338C10.6563 13.8113 10.7825 13.5103 10.7852 13.1957C10.7879 12.881 10.667 12.5779 10.4484 12.3516L8.8968 10.8H13.2C13.5183 10.8 13.8235 10.6736 14.0485 10.4485C14.2736 10.2235 14.4 9.91826 14.4 9.6C14.4 9.28174 14.2736 8.97652 14.0485 8.75147C13.8235 8.52643 13.5183 8.4 13.2 8.4H8.8968L10.4484 6.8484Z" fill="var(--fill-0, black)"/>
</svg>
