<svg preserveAspectRatio="none" width="100%" height="100%" overflow="visible" style="display: block;" viewBox="0 0 24 23" fill="none" xmlns="http://www.w3.org/2000/svg">
<g id="Group">
<path id="Vector" fill-rule="evenodd" clip-rule="evenodd" d="M3.65371 18.0419C3.89604 18.0403 4.13346 18.1102 4.33625 18.2429C4.53905 18.3755 4.69822 18.565 4.79386 18.7877C5.014 19.3052 5.3935 19.7373 5.87486 20.0264C6.77186 20.5653 8.38843 20.5653 9.28707 20.0264C9.76838 19.7371 10.1465 19.3038 10.3681 18.7877C10.4632 18.5664 10.6212 18.3779 10.8223 18.2454C11.0235 18.1129 11.2591 18.0423 11.5 18.0423C11.7409 18.0423 11.9765 18.1129 12.1777 18.2454C12.3788 18.3779 12.5368 18.5664 12.6319 18.7877C12.8537 19.3052 13.2316 19.7373 13.7129 20.0264C14.6099 20.5653 16.2281 20.5653 17.1251 20.0264C17.6065 19.7373 17.986 19.3036 18.2061 18.7877C18.3016 18.565 18.4607 18.3754 18.6634 18.2426C18.8661 18.1098 19.1034 18.0397 19.3457 18.0411C19.588 18.0425 19.8246 18.1154 20.0257 18.2505C20.2268 18.3856 20.3837 18.5771 20.4766 18.8009C20.6173 19.1366 20.8307 19.437 21.1015 19.6805C21.3722 19.9239 21.6934 20.1043 22.0422 20.2088C22.1973 20.255 22.3418 20.3312 22.4675 20.4332C22.5931 20.5353 22.6974 20.661 22.7745 20.8034C22.8515 20.9457 22.8998 21.1018 22.9165 21.2628C22.9332 21.4238 22.918 21.5865 22.8719 21.7416C22.8257 21.8967 22.7494 22.0412 22.6474 22.1668C22.5454 22.2925 22.4196 22.3968 22.2773 22.4738C22.135 22.5509 21.9788 22.5991 21.8179 22.6158C21.6569 22.6325 21.4942 22.6174 21.3391 22.5712C20.5899 22.3481 19.9046 21.9499 19.3397 21.4097C18.8243 21.9125 18.2091 22.3014 17.5338 22.5513C16.8586 22.8012 16.1384 22.9065 15.4199 22.8604C14.7013 22.9065 13.9811 22.8012 13.3059 22.5513C12.6306 22.3014 12.0154 21.9125 11.5 21.4097C10.9846 21.9125 10.3694 22.3014 9.69411 22.5513C9.01886 22.8012 8.29867 22.9065 7.58014 22.8604C6.86162 22.9065 6.14142 22.8012 5.46618 22.5513C4.79093 22.3014 4.17569 21.9125 3.66029 21.4097C3.09537 21.9499 2.41006 22.3481 1.66093 22.5712C1.50581 22.6174 1.34312 22.6325 1.18214 22.6158C1.02116 22.5991 0.865043 22.5509 0.722711 22.4738C0.580379 22.3968 0.454614 22.2925 0.352598 22.1668C0.250582 22.0412 0.174312 21.8967 0.128143 21.7416C0.0819738 21.5865 0.0668099 21.4238 0.0835168 21.2628C0.100224 21.1018 0.148474 20.9457 0.225514 20.8034C0.302553 20.661 0.406873 20.5353 0.532516 20.4332C0.65816 20.3312 0.802666 20.255 0.957786 20.2088C1.30655 20.1043 1.62784 19.9239 1.89855 19.6805C2.16926 19.437 2.38267 19.1366 2.52343 18.8009C2.61641 18.5773 2.7732 18.3861 2.97422 18.2511C3.17524 18.1161 3.41158 18.0433 3.65371 18.0419Z" fill="var(--fill-0, #0A0AFF)"/>
<path id="Vector_2" fill-rule="evenodd" clip-rule="evenodd" d="M13.9643 0C8.855 0 6.90329 3.69314 6.58293 5.61529C6.5591 5.759 6.57392 5.90646 6.62587 6.04256C6.67782 6.17865 6.76502 6.29849 6.87855 6.38977C6.99207 6.48106 7.12783 6.54051 7.2719 6.56204C7.41597 6.58357 7.56318 6.5664 7.69843 6.51229C8.62171 6.14264 9.338 6.07857 9.88343 6.17386C10.4174 6.2675 10.8461 6.52543 11.1977 6.91479C11.9288 7.728 12.3214 9.13264 12.3214 10.6786C12.3214 12.6106 10.3089 14.7857 7.39286 14.7857C5.98493 14.7857 4.5655 14.0415 4.04143 12.8192C3.97798 12.6704 3.872 12.5436 3.73678 12.4548C3.60156 12.366 3.44312 12.319 3.28134 12.3199C3.11956 12.3208 2.96164 12.3694 2.82739 12.4597C2.69314 12.55 2.58854 12.6779 2.52671 12.8274C2.18171 13.6587 1.45064 14.3175 0.588143 14.5738C0.418401 14.6241 0.269444 14.7278 0.163462 14.8696C0.0574805 15.0114 0.000145941 15.1837 0 15.3607L0 18.377C0.120476 18.3244 0.244786 18.279 0.372929 18.2406C0.429961 18.224 0.482487 18.1946 0.526582 18.1548C0.570677 18.115 0.6052 18.0657 0.627571 18.0106C0.875615 17.4141 1.29402 16.9039 1.83046 16.5439C2.36691 16.1839 2.99759 15.99 3.64364 15.9865C4.28969 15.983 4.92243 16.17 5.46276 16.5242C6.00308 16.8784 6.427 17.384 6.6815 17.9778C6.73454 18.0962 6.82142 18.1962 6.93121 18.2653C6.9345 18.2669 6.992 18.2981 7.12014 18.3277C7.42317 18.3946 7.73712 18.3946 8.04014 18.3277C8.10542 18.3146 8.16886 18.2937 8.22907 18.2653C8.33922 18.1969 8.42668 18.0974 8.48043 17.9794C8.73387 17.3887 9.15503 16.8852 9.69175 16.5315C10.2285 16.1777 10.8572 15.9891 11.5 15.9891C12.1428 15.9891 12.7715 16.1777 13.3083 16.5315C13.845 16.8852 14.2661 17.3887 14.5196 17.9794C14.5733 18.0974 14.6608 18.1969 14.7709 18.2653C14.7742 18.2669 14.8317 18.2981 14.9599 18.3277C15.2629 18.3946 15.5768 18.3946 15.8799 18.3277C16.008 18.2981 16.0655 18.2669 16.0688 18.2653C16.1783 18.1966 16.2652 18.0972 16.3185 17.9794C16.573 17.3856 16.9969 16.88 17.5372 16.5258C18.0776 16.1716 18.7103 15.9846 19.3564 15.9881C20.0024 15.9916 20.6331 16.1855 21.1695 16.5455C21.706 16.9056 22.1244 17.4157 22.3724 18.0123C22.3948 18.0673 22.4293 18.1166 22.4734 18.1564C22.5175 18.1963 22.57 18.2256 22.6271 18.2423C22.7552 18.2795 22.8795 18.3244 23 18.377C23 18.377 24 13.5 24 12C24 10.5 23 5.75 23 5.75C23 5.62223 22.9702 5.49623 22.9129 5.382C22.0061 3.56993 18.9799 0 13.9643 0ZM22.7782 21.9699C22.8639 21.8088 22.9128 21.6307 22.9212 21.4484C22.9297 21.2661 22.8975 21.0842 22.8271 20.9158C22.7567 20.7474 22.6497 20.5968 22.514 20.4748C22.3783 20.3528 22.2171 20.2625 22.0422 20.2104C21.6933 20.1058 21.3719 19.9251 21.1012 19.6814C20.8305 19.4376 20.6171 19.1369 20.4766 18.8009C20.3837 18.5771 20.2268 18.3856 20.0257 18.2505C19.8246 18.1154 19.588 18.0425 19.3457 18.0411C19.1034 18.0397 18.8661 18.1098 18.6634 18.2426C18.4607 18.3754 18.3016 18.565 18.2061 18.7877C17.9846 19.3038 17.6064 19.7371 17.1251 20.0264C16.2281 20.5653 14.6116 20.5653 13.7129 20.0264C13.2316 19.7371 12.8535 19.3038 12.6319 18.7877C12.5368 18.5664 12.3788 18.3779 12.1777 18.2454C11.9765 18.1129 11.7409 18.0423 11.5 18.0423C11.2591 18.0423 11.0235 18.1129 10.8223 18.2454C10.6212 18.3779 10.4632 18.5664 10.3681 18.7877C10.1465 19.3038 9.76838 19.7371 9.28707 20.0264C8.39007 20.5653 6.77186 20.5653 5.87486 20.0264C5.39355 19.7371 5.01539 19.3038 4.79386 18.7877C4.69837 18.565 4.53933 18.3754 4.33664 18.2426C4.13395 18.1098 3.8966 18.0397 3.65428 18.0411C3.41197 18.0425 3.17545 18.1154 2.97431 18.2505C2.77316 18.3856 2.61633 18.5771 2.52343 18.8009C2.38267 19.1366 2.16926 19.437 1.89855 19.6805C1.62784 19.9239 1.30655 20.1043 0.957786 20.2088C0.802666 20.255 0.65816 20.3312 0.532516 20.4332C0.406873 20.5353 0.302553 20.661 0.225514 20.8034C0.148474 20.9457 0.100224 21.1018 0.0835169 21.2628C0.0668099 21.4238 0.0819738 21.5865 0.128143 21.7416C0.174312 21.8967 0.250582 22.0412 0.352598 22.1668C0.454614 22.2925 0.580379 22.3968 0.722711 22.4738C0.865043 22.5509 1.02116 22.5991 1.18214 22.6158C1.34312 22.6325 1.50581 22.6174 1.66093 22.5712C2.41006 22.3481 3.09537 21.9499 3.66029 21.4097C3.98756 21.7337 4.35862 22.0102 4.76264 22.2311C5.62229 22.7062 6.6 22.9251 7.58014 22.862C8.56044 22.9246 9.53817 22.7051 10.3976 22.2295L10.5537 22.1391C10.8976 21.9353 11.2153 21.6903 11.5 21.4097C11.8268 21.7336 12.1973 22.01 12.6007 22.2311C13.4604 22.7062 14.4397 22.9251 15.4199 22.862C16.3996 22.9243 17.3767 22.7048 18.2357 22.2295C18.6397 22.0085 19.0108 21.732 19.3381 21.4081L19.4531 21.5132C20.0245 22.0249 20.7074 22.3962 21.4475 22.5975C21.7075 22.6498 21.9774 22.6168 22.2171 22.5034C22.4569 22.3901 22.6537 22.2024 22.7782 21.9683V21.9699Z" fill="var(--fill-0, #0A0AFF)"/>
</g>
</svg>
