<svg preserveAspectRatio="none" width="100%" height="100%" overflow="visible" style="display: block;" viewBox="0 0 20 20" fill="none" xmlns="http://www.w3.org/2000/svg">
<g id="fluent:weather-partly-cloudy-day-16-filled">
<path id="Vector" d="M11.2487 7.5C10.1967 7.50003 9.17996 7.87914 8.38472 8.56785C7.58948 9.25657 7.06904 10.2088 6.91875 11.25H6.875C6.0462 11.25 5.25134 11.5792 4.66529 12.1653C4.07924 12.7513 3.75 13.5462 3.75 14.375C3.75 15.2038 4.07924 15.9987 4.66529 16.5847C5.25134 17.1708 6.0462 17.5 6.875 17.5H15.625C16.4538 17.5 17.2487 17.1708 17.8347 16.5847C18.4208 15.9987 18.75 15.2038 18.75 14.375C18.75 13.5462 18.4208 12.7513 17.8347 12.1653C17.2487 11.5792 16.4538 11.25 15.625 11.25H15.5787C15.4285 10.209 14.9082 9.25695 14.1133 8.56826C13.3183 7.87957 12.3018 7.50033 11.25 7.5M10.985 3.525C11.0236 3.45253 11.0475 3.37317 11.0554 3.29145C11.0633 3.20973 11.055 3.12725 11.0311 3.04873C11.0071 2.9702 10.9679 2.89717 10.9157 2.8338C10.8635 2.77042 10.7993 2.71795 10.7269 2.67937C10.6544 2.6408 10.575 2.61688 10.4933 2.60897C10.4116 2.60107 10.3291 2.60933 10.2506 2.6333C10.1721 2.65727 10.099 2.69647 10.0357 2.74867C9.9723 2.80086 9.91983 2.86503 9.88125 2.9375L9.34875 3.94125C9.27084 4.08762 9.25427 4.25894 9.30268 4.41752C9.35109 4.57611 9.46051 4.70897 9.60687 4.78687C9.75324 4.86478 9.92456 4.88135 10.0831 4.83295C10.2417 4.78454 10.3746 4.67512 10.4525 4.52875L10.985 3.525ZM6.27 2.59125C6.24595 2.5127 6.20667 2.43966 6.15439 2.3763C6.10211 2.31293 6.03787 2.26048 5.96532 2.22195C5.89278 2.18341 5.81335 2.15954 5.73158 2.1517C5.64981 2.14386 5.5673 2.1522 5.48875 2.17625C5.4102 2.2003 5.33716 2.23958 5.2738 2.29186C5.21043 2.34413 5.15798 2.40838 5.11945 2.48093C5.08091 2.55347 5.05704 2.6329 5.0492 2.71467C5.04136 2.79644 5.0497 2.87895 5.07375 2.9575L5.4075 4.045C5.4579 4.20124 5.56776 4.33138 5.71333 4.40729C5.8589 4.4832 6.02849 4.49879 6.18546 4.45068C6.34243 4.40257 6.47416 4.29463 6.5522 4.15019C6.63023 4.00575 6.6483 3.8364 6.6025 3.67875L6.27 2.59125ZM3.75 8.75C3.75 9.505 3.97375 10.2075 4.3575 10.7962C4.81625 10.4725 5.34125 10.2338 5.9075 10.1075C6.23237 9.12984 6.81892 8.2599 7.60345 7.59217C8.38798 6.92443 9.34049 6.48445 10.3575 6.32C9.86035 5.73501 9.19564 5.3167 8.45315 5.12157C7.71066 4.92644 6.92616 4.96389 6.20564 5.22888C5.48512 5.49386 4.86328 5.9736 4.42413 6.60329C3.98498 7.23299 3.74967 7.9823 3.75 8.75ZM2.275 5.2675C2.20253 5.22892 2.12316 5.205 2.04145 5.1971C1.95973 5.18919 1.87725 5.19746 1.79873 5.22143C1.7202 5.2454 1.64717 5.2846 1.5838 5.33679C1.52042 5.38899 1.46795 5.45315 1.42937 5.52562C1.3908 5.5981 1.36688 5.67746 1.35897 5.75918C1.35107 5.8409 1.35933 5.92337 1.3833 6.0019C1.40727 6.08042 1.44647 6.15345 1.49867 6.21683C1.55086 6.2802 1.61503 6.33267 1.6875 6.37125L2.69125 6.90375C2.83762 6.98166 3.00894 6.99823 3.16752 6.94982C3.32611 6.90141 3.45897 6.79199 3.53687 6.64563C3.61478 6.49926 3.63135 6.32794 3.58295 6.16935C3.53454 6.01077 3.42512 5.87791 3.27875 5.8L2.275 5.2675ZM2.795 10.8462C2.95124 10.7958 3.08138 10.686 3.15729 10.5404C3.2332 10.3948 3.24879 10.2253 3.20068 10.0683C3.15257 9.91132 3.04463 9.77959 2.90019 9.70155C2.75575 9.62352 2.5864 9.60545 2.42875 9.65125L1.34125 9.98375C1.26169 10.0069 1.18752 10.0456 1.12306 10.0976C1.05859 10.1496 1.00511 10.214 0.965732 10.2869C0.926352 10.3597 0.901857 10.4397 0.893671 10.5222C0.885485 10.6046 0.893772 10.6879 0.918049 10.7671C0.942326 10.8463 0.982108 10.9199 1.03508 10.9836C1.08806 11.0473 1.15317 11.0998 1.22663 11.1381C1.30009 11.1764 1.38043 11.1997 1.46298 11.2067C1.54554 11.2137 1.62865 11.2042 1.7075 11.1787L2.795 10.8462Z" fill="var(--fill-0, #0A0AFF)"/>
</g>
</svg>
