<svg preserveAspectRatio="none" width="100%" height="100%" overflow="visible" style="display: block;" viewBox="0 0 13 13" fill="none" xmlns="http://www.w3.org/2000/svg">
<g id="Frame 1272628781">
<path id="Vector" d="M2.10601 11.9265C2.14792 11.9684 2.1978 12.0016 2.25271 12.0239C2.30762 12.0462 2.36645 12.0574 2.42573 12.0566C2.48501 12.0558 2.54353 12.0432 2.59785 12.0194C2.65216 11.9957 2.70117 11.9613 2.74197 11.9183L6.34059 8.31965C6.38221 8.27803 6.43866 8.25465 6.49752 8.25465C6.55638 8.25465 6.61283 8.27803 6.65445 8.31965L10.2558 11.921C10.321 11.9878 10.4053 12.0328 10.4971 12.0498C10.5889 12.0668 10.6838 12.055 10.7686 12.016C10.8685 11.9682 10.947 11.8848 10.9886 11.7822C11.0302 11.6795 11.0319 11.5651 10.9934 11.4612L6.91613 0.473126C6.8846 0.388264 6.82787 0.315072 6.75356 0.263368C6.67925 0.211664 6.5909 0.18392 6.50037 0.183856C6.40984 0.183792 6.32146 0.211412 6.24707 0.263011C6.17268 0.31461 6.11585 0.38772 6.0842 0.472537L2.00401 11.4577C1.9743 11.5374 1.96812 11.6239 1.9862 11.7071C2.00429 11.7902 2.04587 11.8663 2.10601 11.9265Z" fill="var(--fill-0, black)"/>
</g>
</svg>
