<svg preserveAspectRatio="none" width="100%" height="100%" overflow="visible" style="display: block;" viewBox="0 0 39 24" fill="none" xmlns="http://www.w3.org/2000/svg">
<g id="Union shadow">
<path id="Vector" d="M25.136 23.9413C24.9106 23.9593 24.6829 23.9685 24.4531 23.9686H8.41682C7.31299 23.9727 6.21921 23.7593 5.19822 23.3407C4.17723 22.922 3.24912 22.3064 2.46714 21.529C1.68515 20.7516 1.06468 19.8278 0.641307 18.8106C0.217936 17.7934 0 16.7028 0 15.6014C0 14.5 0.217936 13.4094 0.641307 12.3922C1.06468 11.375 1.68515 10.4512 2.46714 9.67386C3.24912 8.89648 4.17723 8.28081 5.19822 7.86216C6.21921 7.44351 7.31299 7.23012 8.41682 7.23422H14.396C16.3344 2.97863 20.799 1.30919e-05 25.9965 1.30919e-05C32.9727 1.30919e-05 38.6281 5.36561 38.6281 11.9843C38.6281 18.603 32.9727 23.9686 25.9965 23.9686C25.7073 23.9686 25.4205 23.9595 25.136 23.9413Z" fill="url(#paint0_linear_4199_5056)"/>
<path id="Vector_2" d="M25.9963 23.8523C26.8459 23.8523 27.6949 23.7711 28.5198 23.6109C29.3236 23.4549 30.1142 23.222 30.8697 22.9189C31.6114 22.6212 32.3267 22.2529 32.9958 21.824C33.6585 21.3992 34.2817 20.9114 34.848 20.3741C35.4142 19.837 35.9282 19.2459 36.3757 18.6174C36.8275 17.983 37.2154 17.3049 37.5289 16.6018C37.8481 15.8859 38.0932 15.1367 38.2575 14.375C38.426 13.5935 38.5115 12.7892 38.5115 11.9843C38.5115 11.1794 38.426 10.375 38.2575 9.59351C38.0932 8.83188 37.8481 8.08269 37.5289 7.36676C37.2154 6.66369 36.8275 5.98555 36.3757 5.35116C35.9282 4.72267 35.4142 4.13162 34.848 3.59445C34.2817 3.05718 33.6585 2.5694 32.9958 2.14464C32.3267 1.71575 31.6114 1.34737 30.8697 1.04974C30.1142 0.74658 29.3236 0.51374 28.5198 0.357692C27.6949 0.197552 26.8459 0.116352 25.9963 0.116352C23.5044 0.116352 21.0977 0.808921 19.0365 2.11918C18.043 2.75077 17.1502 3.51313 16.3829 4.38507C15.6108 5.26252 14.9779 6.23729 14.5019 7.28232L14.4709 7.35053H14.3958H8.4167C7.30036 7.35053 6.21747 7.56867 5.19811 7.99888C4.70817 8.20566 4.23561 8.46159 3.79356 8.75958C3.35569 9.05476 2.94392 9.39376 2.56971 9.76716C2.19549 10.1406 1.85575 10.5514 1.55992 10.9883C1.26128 11.4294 1.00479 11.901 0.797559 12.3898C0.366405 13.407 0.147791 14.4875 0.147791 15.6014C0.147791 16.7153 0.366405 17.7958 0.797559 18.813C1.00479 19.3018 1.26128 19.7734 1.55992 20.2144C1.85575 20.6514 2.19549 21.0622 2.56971 21.4356C2.94392 21.809 3.35569 22.148 3.79356 22.4432C4.23561 22.7412 4.70817 22.9971 5.19811 23.2039C6.21747 23.6341 7.30036 23.8523 8.4167 23.8523H24.453C24.6772 23.8523 24.9039 23.8432 25.1266 23.8253L25.135 23.8246L25.1434 23.8251C25.4256 23.8431 25.7125 23.8523 25.9963 23.8523ZM25.9963 23.9686C25.7072 23.9686 25.4203 23.9594 25.136 23.9412C24.9109 23.9593 24.6828 23.9686 24.453 23.9686H8.4167C3.78553 23.9686 0.0311841 20.2225 0.0311841 15.6014C0.0311841 10.9803 3.78553 7.23418 8.4167 7.23418H14.3958C16.3343 2.97809 20.7986 0 25.9963 0C32.9726 0 38.6281 5.3656 38.6281 11.9843C38.6281 18.603 32.9726 23.9686 25.9963 23.9686Z" fill="var(--fill-0, white)" fill-opacity="0.5"/>
</g>
<defs>
<linearGradient id="paint0_linear_4199_5056" x1="15.6444" y1="3.02006" x2="23.3154" y2="25.2783" gradientUnits="userSpaceOnUse">
<stop stop-color="white" stop-opacity="0.596"/>
<stop offset="1" stop-color="#F7F7F7" stop-opacity="0.204"/>
</linearGradient>
</defs>
</svg>
