<svg preserveAspectRatio="none" width="100%" height="100%" overflow="visible" style="display: block;" viewBox="0 0 20 12" fill="none" xmlns="http://www.w3.org/2000/svg">
<g id="Union shadow">
<path id="Vector" d="M14.2235 11.9367H3.8839C2.88088 11.9359 1.91704 11.5472 1.19415 10.8518C0.471267 10.1565 0.0453813 9.20848 0.00565487 8.20623C-0.0340716 7.20398 0.315441 6.22522 0.981024 5.47485C1.64661 4.72447 2.57666 4.26066 3.57647 4.18051C3.71905 3.17371 4.17368 2.23696 4.8764 1.50203C5.57913 0.767098 6.49458 0.27098 7.49397 0.08347C8.49335 -0.104039 9.52638 0.026497 10.4477 0.456715C11.369 0.886932 12.1323 1.59518 12.6301 2.48182C13.5432 2.16574 14.5297 2.12881 15.4639 2.37573C16.398 2.62266 17.2375 3.14226 17.8751 3.86824C18.5127 4.59422 18.9197 5.49369 19.044 6.45191C19.1683 7.41012 19.0044 8.38366 18.5731 9.24833C18.3201 10.0295 17.826 10.7105 17.1619 11.1935C16.4978 11.6765 15.6978 11.9366 14.8766 11.9367H14.2235Z" fill="url(#paint0_linear_4199_4960)"/>
<path id="Vector_2" d="M14.8768 11.8828C15.2938 11.8828 15.7037 11.8162 16.0953 11.6849C16.4739 11.5579 16.8294 11.3727 17.1518 11.1342C17.4705 10.8985 17.7499 10.6161 17.9823 10.295C18.2175 9.96982 18.399 9.61213 18.522 9.23184L18.5232 9.22794L18.5251 9.22428C18.6886 8.89761 18.8145 8.55204 18.8993 8.19717C18.9865 7.83203 19.0308 7.4547 19.0308 7.07568C19.0308 6.74949 18.9979 6.42352 18.9331 6.10683C18.87 5.79821 18.7757 5.49465 18.653 5.20456C18.5326 4.91974 18.3835 4.64501 18.2098 4.38803C18.0379 4.13347 17.8404 3.8941 17.6228 3.67655C17.4053 3.45901 17.1659 3.2615 16.9114 3.08953C16.6544 2.91591 16.3797 2.7668 16.0948 2.64632C15.8048 2.52363 15.5012 2.42939 15.1926 2.36624C14.8759 2.30143 14.5499 2.26858 14.2237 2.26858C13.6836 2.26858 13.1535 2.35746 12.648 2.53276L12.6054 2.54755L12.5833 2.50821C12.1719 1.77678 11.5736 1.16252 10.853 0.731832C10.4885 0.514022 10.097 0.345707 9.6892 0.231561C9.26853 0.113802 8.83157 0.0540938 8.39047 0.0540938C7.79716 0.0540938 7.21801 0.160876 6.66908 0.371473C6.13879 0.574918 5.65233 0.868802 5.22322 1.24496C4.79657 1.61895 4.4425 2.06023 4.17086 2.55653C3.89254 3.06502 3.71064 3.6139 3.6302 4.18793L3.62418 4.2309L3.58092 4.23428C3.09707 4.27215 2.63155 4.39955 2.19729 4.61292C1.77533 4.82024 1.39854 5.10066 1.07737 5.44639C0.417449 6.15679 0.0540117 7.08237 0.0540117 8.05262C0.0540117 8.56971 0.155271 9.07131 0.35498 9.54347C0.450968 9.77041 0.569777 9.9893 0.708106 10.1941C0.845131 10.3969 1.0025 10.5876 1.17583 10.761C1.34916 10.9343 1.53989 11.0917 1.74272 11.2287C1.94747 11.367 2.16636 11.4858 2.39329 11.5818C2.86545 11.7815 3.36704 11.8828 3.88413 11.8828H14.2237H14.8768ZM14.8768 11.9368H14.2237H3.88413C1.73899 11.9368 0 10.1978 0 8.05262C0 6.01089 1.57523 4.3371 3.57671 4.18043C3.90777 1.818 5.9368 8.13802e-05 8.39047 8.13802e-05C10.2108 8.13802e-05 11.7974 1.00056 12.6303 2.48173C13.1295 2.3086 13.6656 2.21456 14.2237 2.21456C16.9084 2.21456 19.0848 4.39098 19.0848 7.07568C19.0848 7.85666 18.9007 8.59457 18.5734 9.24845C18.0691 10.8084 16.6047 11.9368 14.8768 11.9368Z" fill="var(--fill-0, white)" fill-opacity="0.5"/>
</g>
<defs>
<linearGradient id="paint0_linear_4199_4960" x1="9.54351" y1="8.13802e-05" x2="15.0875" y2="13.404" gradientUnits="userSpaceOnUse">
<stop stop-color="white" stop-opacity="0.604"/>
<stop offset="1" stop-color="white" stop-opacity="0.2"/>
</linearGradient>
</defs>
</svg>
