<svg preserveAspectRatio="none" width="100%" height="100%" overflow="visible" style="display: block;" viewBox="0 0 369 5" fill="none" xmlns="http://www.w3.org/2000/svg">
<g id="Frame 147">
<line id="Line 1" x1="19.7518" x2="19.7518" y2="4.48905" stroke="var(--stroke-0, #B0B0B0)" stroke-width="0.89781"/>
<line id="Line 2" x1="34.1168" x2="34.1168" y2="4.48905" stroke="var(--stroke-0, #B0B0B0)" stroke-width="0.89781"/>
<line id="Line 3" x1="48.4817" x2="48.4818" y2="4.48905" stroke="var(--stroke-0, #B0B0B0)" stroke-width="0.89781"/>
<line id="Line 4" x1="62.8467" x2="62.8467" y2="4.48905" stroke="var(--stroke-0, #B0B0B0)" stroke-width="0.89781"/>
<line id="Line 5" x1="77.2117" x2="77.2117" y2="4.48905" stroke="var(--stroke-0, #B0B0B0)" stroke-width="0.89781"/>
<line id="Line 6" x1="91.5766" x2="91.5766" y2="4.48905" stroke="var(--stroke-0, #B0B0B0)" stroke-width="0.89781"/>
<line id="Line 7" x1="105.942" x2="105.942" y2="4.48905" stroke="var(--stroke-0, #B0B0B0)" stroke-width="0.89781"/>
<line id="Line 8" x1="120.306" y1="-0.000106732" x2="120.306" y2="4.48894" stroke="var(--stroke-0, #B0B0B0)" stroke-width="0.89781"/>
<line id="Line 9" x1="134.671" y1="-0.000106732" x2="134.671" y2="4.48894" stroke="var(--stroke-0, #B0B0B0)" stroke-width="0.89781"/>
<line id="Line 10" x1="149.036" y1="-0.000106732" x2="149.036" y2="4.48894" stroke="var(--stroke-0, #B0B0B0)" stroke-width="0.89781"/>
<line id="Line 11" x1="163.401" y1="-0.000106732" x2="163.401" y2="4.48894" stroke="var(--stroke-0, #B0B0B0)" stroke-width="0.89781"/>
<line id="Line 12" x1="177.766" y1="-0.000106732" x2="177.766" y2="4.48894" stroke="var(--stroke-0, #B0B0B0)" stroke-width="0.89781"/>
<line id="Line 13" x1="192.131" y1="-0.000106732" x2="192.131" y2="4.48894" stroke="var(--stroke-0, #B0B0B0)" stroke-width="0.89781"/>
<line id="Line 14" x1="206.496" y1="-0.000106732" x2="206.496" y2="4.48894" stroke="var(--stroke-0, #B0B0B0)" stroke-width="0.89781"/>
<line id="Line 15" x1="220.861" y1="-0.000106732" x2="220.861" y2="4.48894" stroke="var(--stroke-0, #B0B0B0)" stroke-width="0.89781"/>
<line id="Line 16" x1="235.226" y1="-0.000106732" x2="235.226" y2="4.48894" stroke="var(--stroke-0, #B0B0B0)" stroke-width="0.89781"/>
<line id="Line 17" x1="249.591" x2="249.591" y2="4.48905" stroke="var(--stroke-0, #B0B0B0)" stroke-width="0.89781"/>
<line id="Line 18" x1="263.956" x2="263.956" y2="4.48905" stroke="var(--stroke-0, #B0B0B0)" stroke-width="0.89781"/>
<line id="Line 19" x1="278.321" x2="278.321" y2="4.48905" stroke="var(--stroke-0, #B0B0B0)" stroke-width="0.89781"/>
<line id="Line 20" x1="292.686" x2="292.686" y2="4.48905" stroke="var(--stroke-0, #B0B0B0)" stroke-width="0.89781"/>
<line id="Line 21" x1="307.051" x2="307.051" y2="4.48905" stroke="var(--stroke-0, #B0B0B0)" stroke-width="0.89781"/>
<line id="Line 22" x1="321.416" x2="321.416" y2="4.48905" stroke="var(--stroke-0, #B0B0B0)" stroke-width="0.89781"/>
<line id="Line 23" x1="335.781" x2="335.781" y2="4.48905" stroke="var(--stroke-0, #B0B0B0)" stroke-width="0.89781"/>
<line id="Line 24" x1="350.146" x2="350.146" y2="4.48905" stroke="var(--stroke-0, #B0B0B0)" stroke-width="0.89781"/>
</g>
</svg>
