<svg preserveAspectRatio="none" width="100%" height="100%" overflow="visible" style="display: block;" viewBox="0 0 22 14" fill="none" xmlns="http://www.w3.org/2000/svg">
<g id="Union shadow">
<path id="Vector" d="M16.3718 13.7394H4.47086C3.31637 13.7385 2.20698 13.2911 1.37493 12.4908C0.542878 11.6904 0.0526797 10.5993 0.0069542 9.44567C-0.0387713 8.29209 0.363521 7.16554 1.12961 6.30186C1.89571 5.43818 2.9662 4.90434 4.117 4.81208C4.28111 3.65327 4.80439 2.57507 5.61324 1.72917C6.42208 0.883263 7.47578 0.312233 8.62608 0.0964103C9.77638 -0.119412 10.9654 0.0308346 12.0259 0.526013C13.0863 1.02119 13.9649 1.83638 14.5379 2.8569C15.5888 2.49309 16.7243 2.45058 17.7995 2.7348C18.8748 3.01901 19.841 3.61706 20.5749 4.45267C21.3088 5.28827 21.7772 6.32355 21.9203 7.42645C22.0634 8.52936 21.8747 9.64989 21.3783 10.6451C21.087 11.5443 20.5184 12.3281 19.754 12.884C18.9896 13.4399 18.0687 13.7394 17.1236 13.7394H16.3718Z" fill="url(#paint0_linear_4199_5013)"/>
<path id="Vector_2" d="M17.1234 13.6769C17.6033 13.6769 18.0751 13.6003 18.5258 13.4492C18.9616 13.303 19.3708 13.0898 19.7419 12.8153C20.1088 12.544 20.4304 12.219 20.6978 11.8494C20.9685 11.4751 21.1775 11.0634 21.319 10.6257L21.3205 10.6212L21.3226 10.617C21.5108 10.241 21.6557 9.84327 21.7533 9.43482C21.8537 9.01453 21.9046 8.58024 21.9046 8.14398C21.9046 7.76854 21.8668 7.39336 21.7922 7.02884C21.7195 6.67362 21.6111 6.32422 21.4698 5.99034C21.3312 5.6625 21.1595 5.3463 20.9597 5.05051C20.7618 4.75752 20.5344 4.482 20.2841 4.2316C20.0337 3.98121 19.7581 3.75388 19.4651 3.55594C19.1694 3.35611 18.8532 3.18448 18.5253 3.04581C18.1914 2.90459 17.842 2.79613 17.4868 2.72344C17.1223 2.64885 16.7471 2.61103 16.3717 2.61103C15.75 2.61103 15.1398 2.71333 14.558 2.9151L14.5089 2.93213L14.4835 2.88684C14.01 2.04497 13.3213 1.33796 12.4919 0.842241C12.0724 0.591543 11.6217 0.397813 11.1524 0.266432C10.6682 0.130892 10.1652 0.0621681 9.65752 0.0621681C8.97462 0.0621681 8.308 0.185074 7.67618 0.42747C7.06582 0.661635 6.5059 0.999894 6.01198 1.43285C5.5209 1.86332 5.11337 2.37123 4.8007 2.94246C4.48036 3.52773 4.27098 4.15949 4.17839 4.82019L4.17147 4.86965L4.12168 4.87355C3.56476 4.91714 3.02895 5.06377 2.52911 5.30935C2.04342 5.54798 1.60973 5.87075 1.24007 6.26868C0.480488 7.08634 0.0621681 8.15168 0.0621681 9.26844C0.0621681 9.86361 0.178719 10.4409 0.408585 10.9844C0.519069 11.2456 0.655819 11.4976 0.815037 11.7332C0.972755 11.9667 1.15388 12.1862 1.35339 12.3857C1.5529 12.5852 1.77243 12.7664 2.00588 12.9241C2.24156 13.0833 2.4935 13.22 2.75471 13.3305C3.29817 13.5604 3.8755 13.6769 4.47067 13.6769H16.3717H17.1234ZM17.1234 13.7391H16.3717H4.47067C2.0016 13.7391 0 11.7375 0 9.26844C0 6.91842 1.81311 4.99189 4.11683 4.81157C4.49788 2.09241 6.83332 0 9.65752 0C11.7527 0 13.5789 1.15155 14.5377 2.85637C15.1122 2.6571 15.7293 2.54886 16.3717 2.54886C19.4617 2.54886 21.9668 5.05391 21.9668 8.14398C21.9668 9.04289 21.7548 9.89222 21.3782 10.6448C20.7977 12.4404 19.1122 13.7391 17.1234 13.7391Z" fill="var(--fill-0, white)" fill-opacity="0.5"/>
</g>
<defs>
<linearGradient id="paint0_linear_4199_5013" x1="10.9851" y1="0.00043035" x2="17.3662" y2="15.4283" gradientUnits="userSpaceOnUse">
<stop stop-color="white" stop-opacity="0.604"/>
<stop offset="1" stop-color="white" stop-opacity="0.2"/>
</linearGradient>
</defs>
</svg>
