<svg preserveAspectRatio="none" width="100%" height="100%" overflow="visible" style="display: block;" viewBox="0 0 22 24" fill="none" xmlns="http://www.w3.org/2000/svg">
<g id="Group">
<path id="Vector" fill-rule="evenodd" clip-rule="evenodd" d="M11.3499 22.7764L11.3381 22.7785L11.262 22.816L11.2406 22.8203L11.2256 22.816L11.1495 22.7785C11.1381 22.7749 11.1295 22.7767 11.1238 22.7839L11.1195 22.7946L11.1013 23.2531L11.1067 23.2746L11.1174 23.2885L11.2288 23.3678L11.2449 23.3721L11.2578 23.3678L11.3692 23.2885L11.382 23.2714L11.3863 23.2531L11.3681 22.7956C11.3653 22.7842 11.3592 22.7778 11.3499 22.7764ZM11.6338 22.6553L11.6199 22.6574L11.4217 22.7571L11.411 22.7678L11.4078 22.7796L11.427 23.2403L11.4324 23.2531L11.441 23.2606L11.6563 23.3603C11.6699 23.3639 11.6803 23.361 11.6874 23.3517L11.6917 23.3367L11.6553 22.6789C11.6517 22.666 11.6445 22.6581 11.6338 22.6553ZM10.8678 22.6574C10.863 22.6546 10.8574 22.6536 10.852 22.6548C10.8466 22.656 10.8419 22.6593 10.8388 22.6639L10.8324 22.6789L10.796 23.3367C10.7967 23.3496 10.8028 23.3581 10.8142 23.3624L10.8303 23.3603L11.0456 23.2606L11.0563 23.2521L11.0606 23.2403L11.0788 22.7796L11.0756 22.7667L11.0649 22.756L10.8678 22.6574Z" fill="var(--fill-0, #0A0AFF)"/>
<path id="Vector_2" fill-rule="evenodd" clip-rule="evenodd" d="M9.10714 2.14286C8.7368 2.14273 8.37777 2.27051 8.09078 2.50459C7.8038 2.73867 7.60646 3.06469 7.53214 3.4275C7.50407 3.56539 7.44912 3.6964 7.37042 3.81305C7.29172 3.9297 7.19081 4.0297 7.07346 4.10736C6.95611 4.18501 6.82462 4.23879 6.68648 4.26562C6.54835 4.29246 6.40628 4.29182 6.26839 4.26375C6.1305 4.23568 5.9995 4.18073 5.88285 4.10202C5.7662 4.02332 5.66619 3.92242 5.58854 3.80507C5.51088 3.68772 5.4571 3.55622 5.43027 3.41809C5.40344 3.27995 5.40407 3.13789 5.43214 3C5.57405 2.30481 5.91026 1.66415 6.40174 1.15241C6.89322 0.640682 7.51979 0.27888 8.20869 0.109032C8.89758 -0.0608166 9.62052 -0.0317423 10.2936 0.192878C10.9666 0.417499 11.5621 0.828447 12.0109 1.378C12.4597 1.92754 12.7434 2.59314 12.829 3.29748C12.9146 4.00181 12.7986 4.71599 12.4946 5.35706C12.1905 5.99812 11.7108 6.53977 11.1112 6.9191C10.5116 7.29842 9.81667 7.49985 9.10714 7.5H3.21429C2.93013 7.5 2.6576 7.38712 2.45667 7.18619C2.25574 6.98525 2.14286 6.71273 2.14286 6.42857C2.14286 6.14441 2.25574 5.87189 2.45667 5.67096C2.6576 5.47003 2.93013 5.35714 3.21429 5.35714H9.10714C9.53338 5.35714 9.94217 5.18782 10.2436 4.88642C10.545 4.58502 10.7143 4.17624 10.7143 3.75C10.7143 3.32376 10.545 2.91498 10.2436 2.61358C9.94217 2.31218 9.53338 2.14286 9.10714 2.14286ZM17.6786 6.42857C17.3082 6.42845 16.9492 6.55623 16.6622 6.79031C16.3752 7.02439 16.1779 7.3504 16.1036 7.71321C16.0756 7.8511 16.0207 7.98212 15.9421 8.0988C15.8634 8.21548 15.7626 8.31552 15.6453 8.39323C15.528 8.47093 15.3965 8.52477 15.2584 8.55167C15.1203 8.57857 14.9782 8.578 14.8404 8.55C14.7025 8.522 14.5714 8.46711 14.4548 8.38848C14.3381 8.30984 14.238 8.209 14.1603 8.0917C14.0826 7.9744 14.0288 7.84294 14.0019 7.70483C13.975 7.56673 13.9756 7.42467 14.0036 7.28679C14.1453 6.5915 14.4814 5.95069 14.9727 5.4388C15.4641 4.9269 16.0907 4.56493 16.7796 4.39493C17.4685 4.22493 18.1915 4.25387 18.8646 4.4784C19.5377 4.70293 20.1333 5.11383 20.5822 5.66337C21.0311 6.21291 21.3149 6.87853 21.4006 7.58292C21.4863 8.2873 21.3703 9.00154 21.0663 9.64267C20.7622 10.2838 20.2825 10.8255 19.6828 11.2048C19.0831 11.5842 18.3881 11.7856 17.6786 11.7857H1.07143C0.787268 11.7857 0.514746 11.6728 0.313814 11.4719C0.112882 11.271 0 10.9984 0 10.7143C0 10.4301 0.112882 10.1576 0.313814 9.95667C0.514746 9.75574 0.787268 9.64286 1.07143 9.64286H17.6786C18.1048 9.64286 18.5136 9.47353 18.815 9.17214C19.1164 8.87074 19.2857 8.46195 19.2857 8.03571C19.2857 7.60947 19.1164 7.20069 18.815 6.89929C18.5136 6.59789 18.1048 6.42857 17.6786 6.42857ZM11.8179 18.0011C11.8789 18.2989 12.0231 18.5733 12.2338 18.7925C12.4445 19.0116 12.7131 19.1665 13.0083 19.2392C13.3035 19.3118 13.6133 19.2992 13.9017 19.2029C14.19 19.1065 14.4451 18.9303 14.6374 18.6948C14.8296 18.4593 14.9511 18.174 14.9877 17.8722C15.0244 17.5704 14.9747 17.2644 14.8443 16.9897C14.714 16.7151 14.5085 16.483 14.2516 16.3204C13.9946 16.1579 13.6969 16.0715 13.3929 16.0714H6.42857C6.14441 16.0714 5.87189 15.9585 5.67096 15.7576C5.47003 15.5567 5.35714 15.2842 5.35714 15C5.35714 14.7158 5.47003 14.4433 5.67096 14.2424C5.87189 14.0415 6.14441 13.9286 6.42857 13.9286H13.3929C14.1024 13.9287 14.7974 14.1301 15.3971 14.5094C15.9968 14.8888 16.4765 15.4305 16.7806 16.0716C17.0846 16.7127 17.2006 17.427 17.1149 18.1314C17.0292 18.8358 16.7454 19.5014 16.2965 20.0509C15.8476 20.6005 15.252 21.0114 14.5789 21.2359C13.9058 21.4604 13.1828 21.4894 12.4939 21.3194C11.805 21.1494 11.1784 20.7874 10.687 20.2755C10.1956 19.7636 9.85957 19.1228 9.71786 18.4275C9.66131 18.149 9.7177 17.8595 9.87463 17.6226C10.0316 17.3857 10.2762 17.2208 10.5546 17.1643C10.8331 17.1077 11.1227 17.1641 11.3596 17.3211C11.5965 17.478 11.7613 17.7226 11.8179 18.0011Z" fill="var(--fill-0, #0A0AFF)"/>
</g>
</svg>
