<svg preserveAspectRatio="none" width="100%" height="100%" overflow="visible" style="display: block;" viewBox="0 0 20 20" fill="none" xmlns="http://www.w3.org/2000/svg">
<g id="carbon:tides">
<path id="Vector" d="M12.5 12.5C12.0745 12.4749 11.666 12.3239 11.3265 12.0662C10.9869 11.8085 10.7317 11.4556 10.5931 11.0525C10.5508 10.9285 10.471 10.8207 10.3648 10.7441C10.2585 10.6675 10.131 10.6259 10 10.625C9.86914 10.6241 9.74136 10.6646 9.63501 10.7409C9.52866 10.8171 9.44923 10.9251 9.40812 11.0494C9.27001 11.4533 9.01478 11.8069 8.67497 12.0653C8.33515 12.3236 7.92613 12.4749 7.5 12.5C7.07446 12.4749 6.66598 12.3239 6.32645 12.0662C5.98692 11.8085 5.73167 11.4556 5.59313 11.0525C5.55084 10.9285 5.47103 10.8207 5.36475 10.7441C5.25848 10.6675 5.131 10.6259 5 10.625C4.86869 10.6221 4.73998 10.6619 4.63324 10.7384C4.5265 10.8149 4.4475 10.9241 4.40812 11.0494C4.27001 11.4533 4.01478 11.8069 3.67497 12.0653C3.33515 12.3236 2.92613 12.4749 2.5 12.5H1.25V13.75H2.5C2.98505 13.7544 3.46428 13.6442 3.8987 13.4284C4.33312 13.2126 4.71046 12.8973 5 12.5081C5.29261 12.894 5.67058 13.2069 6.1043 13.4223C6.53802 13.6378 7.01572 13.7499 7.5 13.7499C7.98428 13.7499 8.46198 13.6378 8.8957 13.4223C9.32942 13.2069 9.70739 12.894 10 12.5081C10.2895 12.8973 10.6669 13.2126 11.1013 13.4284C11.5357 13.6442 12.015 13.7544 12.5 13.75H18.75V12.5H12.5ZM17.5 17.5C17.0745 17.4749 16.666 17.3239 16.3265 17.0662C15.9869 16.8085 15.7317 16.4556 15.5931 16.0525C15.5508 15.9285 15.471 15.8207 15.3648 15.7441C15.2585 15.6675 15.131 15.6259 15 15.625C14.8691 15.6241 14.7414 15.6646 14.635 15.7409C14.5287 15.8171 14.4492 15.9251 14.4081 16.0494C14.27 16.4533 14.0148 16.8069 13.675 17.0653C13.3352 17.3236 12.9261 17.4749 12.5 17.5C12.0745 17.4749 11.666 17.3239 11.3265 17.0662C10.9869 16.8085 10.7317 16.4556 10.5931 16.0525C10.5508 15.9285 10.471 15.8207 10.3648 15.7441C10.2585 15.6675 10.131 15.6259 10 15.625C9.86869 15.6221 9.73998 15.6619 9.63324 15.7384C9.5265 15.8149 9.4475 15.9241 9.40812 16.0494C9.27001 16.4533 9.01478 16.8069 8.67497 17.0653C8.33515 17.3236 7.92613 17.4749 7.5 17.5H1.25V18.75H7.5C7.98505 18.7544 8.46428 18.6442 8.8987 18.4284C9.33312 18.2126 9.71046 17.8973 10 17.5081C10.2926 17.894 10.6706 18.2069 11.1043 18.4223C11.538 18.6378 12.0157 18.7499 12.5 18.7499C12.9843 18.7499 13.462 18.6378 13.8957 18.4223C14.3294 18.2069 14.7074 17.894 15 17.5081C15.2895 17.8973 15.6669 18.2126 16.1013 18.4284C16.5357 18.6442 17.015 18.7544 17.5 18.75H18.75V17.5H17.5Z" fill="var(--fill-0, black)"/>
<path id="Vector_2" d="M10.125 9.5L13.25 6.375L12.3663 5.49125L10.75 7.10437V2H9.5V7.10437L7.88313 5.49L7 6.375L10.125 9.5Z" fill="var(--fill-0, #DD4949)"/>
</g>
</svg>
