<svg preserveAspectRatio="none" width="100%" height="100%" overflow="visible" style="display: block;" viewBox="0 0 19 20" fill="none" xmlns="http://www.w3.org/2000/svg">
<g id="Group">
<path id="Vector" fill-rule="evenodd" clip-rule="evenodd" d="M9.71024 19.4377L9.70016 19.4396L9.63508 19.4717L9.61674 19.4753L9.60391 19.4717L9.53883 19.4396C9.52905 19.4365 9.52172 19.438 9.51683 19.4442L9.51316 19.4533L9.49758 19.8457L9.50216 19.864L9.51133 19.8759L9.60666 19.9437L9.62041 19.9474L9.63141 19.9437L9.72674 19.8759L9.73774 19.8612L9.74141 19.8457L9.72583 19.4542C9.72338 19.4445 9.71819 19.439 9.71024 19.4377ZM9.95316 19.3342L9.94124 19.336L9.77166 19.4212L9.76249 19.4304L9.75974 19.4405L9.77624 19.8347L9.78083 19.8457L9.78816 19.8521L9.97241 19.9373C9.98402 19.9404 9.99288 19.9379 9.99899 19.93L10.0027 19.9172L9.97149 19.3543C9.96844 19.3433 9.96233 19.3366 9.95316 19.3342ZM9.29774 19.336C9.2937 19.3335 9.28888 19.3327 9.28427 19.3338C9.27965 19.3348 9.27562 19.3376 9.27299 19.3415L9.26749 19.3543L9.23633 19.9172C9.23694 19.9282 9.24213 19.9355 9.25191 19.9392L9.26566 19.9373L9.44991 19.8521L9.45908 19.8447L9.46274 19.8347L9.47833 19.4405L9.47558 19.4295L9.46641 19.4203L9.29774 19.336Z" fill="var(--fill-0, #0A0AFF)"/>
<path id="Vector_2" fill-rule="evenodd" clip-rule="evenodd" d="M7.79167 1.83333C7.47482 1.83323 7.16765 1.94255 6.92212 2.14282C6.67658 2.34309 6.50775 2.62201 6.44417 2.93242C6.42015 3.05039 6.37314 3.16247 6.3058 3.26227C6.23847 3.36207 6.15214 3.44763 6.05174 3.51407C5.95134 3.58051 5.83884 3.62652 5.72066 3.64948C5.60248 3.67243 5.48093 3.67189 5.36296 3.64787C5.24499 3.62386 5.1329 3.57684 5.0331 3.50951C4.9333 3.44218 4.84774 3.35585 4.7813 3.25545C4.71487 3.15505 4.66886 3.04255 4.6459 2.92436C4.62294 2.80618 4.62348 2.68464 4.6475 2.56667C4.76891 1.9719 5.05656 1.42377 5.47705 0.985955C5.89753 0.548139 6.4336 0.238598 7.02299 0.0932829C7.61237 -0.052032 8.23089 -0.0271573 8.80671 0.165018C9.38252 0.357193 9.892 0.708783 10.276 1.17895C10.6599 1.64912 10.9026 2.21857 10.9759 2.82117C11.0492 3.42377 10.9499 4.03479 10.6898 4.58326C10.4297 5.13173 10.0193 5.59514 9.50625 5.91967C8.99325 6.24421 8.3987 6.41654 7.79167 6.41667H2.75C2.50688 6.41667 2.27373 6.32009 2.10182 6.14818C1.92991 5.97627 1.83333 5.74311 1.83333 5.5C1.83333 5.25688 1.92991 5.02373 2.10182 4.85182C2.27373 4.67991 2.50688 4.58333 2.75 4.58333H7.79167C8.15634 4.58333 8.50608 4.43847 8.76394 4.18061C9.0218 3.92274 9.16667 3.57301 9.16667 3.20833C9.16667 2.84366 9.0218 2.49392 8.76394 2.23606C8.50608 1.9782 8.15634 1.83333 7.79167 1.83333ZM15.125 5.5C14.8081 5.49989 14.501 5.60922 14.2554 5.80949C14.0099 6.00975 13.8411 6.28868 13.7775 6.59908C13.7535 6.71705 13.7066 6.82915 13.6393 6.92897C13.572 7.0288 13.4858 7.11439 13.3854 7.18087C13.285 7.24735 13.1726 7.29341 13.0544 7.31643C12.9363 7.33944 12.8147 7.33895 12.6968 7.315C12.5788 7.29104 12.4667 7.24409 12.3669 7.17681C12.267 7.10953 12.1814 7.02325 12.115 6.9229C12.0485 6.82254 12.0024 6.71007 11.9794 6.59191C11.9564 6.47375 11.9569 6.35222 11.9808 6.23425C12.1021 5.6394 12.3896 5.09115 12.81 4.65319C13.2304 4.21524 13.7665 3.90555 14.3559 3.76011C14.9453 3.61466 15.5638 3.63942 16.1397 3.83152C16.7156 4.02362 17.2252 4.37517 17.6093 4.84533C17.9933 5.31549 18.2361 5.88497 18.3094 6.48761C18.3827 7.09025 18.2835 7.70132 18.0234 8.24984C17.7632 8.79836 17.3528 9.26181 16.8397 9.58636C16.3267 9.91092 15.7321 10.0832 15.125 10.0833H0.916667C0.673552 10.0833 0.440394 9.98676 0.268485 9.81485C0.0965771 9.64294 0 9.40978 0 9.16667C0 8.92355 0.0965771 8.69039 0.268485 8.51849C0.440394 8.34658 0.673552 8.25 0.916667 8.25H15.125C15.4897 8.25 15.8394 8.10513 16.0973 7.84727C16.3551 7.58941 16.5 7.23967 16.5 6.875C16.5 6.51033 16.3551 6.16059 16.0973 5.90273C15.8394 5.64487 15.4897 5.5 15.125 5.5ZM10.1108 15.4009C10.163 15.6557 10.2864 15.8905 10.4667 16.078C10.647 16.2655 10.8768 16.398 11.1293 16.4602C11.3819 16.5223 11.6469 16.5116 11.8937 16.4291C12.1404 16.3467 12.3586 16.196 12.5231 15.9944C12.6876 15.7929 12.7915 15.5489 12.8228 15.2907C12.8542 15.0325 12.8116 14.7707 12.7002 14.5357C12.5887 14.3007 12.4128 14.1021 12.193 13.963C11.9732 13.824 11.7184 13.7501 11.4583 13.75H5.5C5.25688 13.75 5.02373 13.6534 4.85182 13.4815C4.67991 13.3096 4.58333 13.0764 4.58333 12.8333C4.58333 12.5902 4.67991 12.3571 4.85182 12.1852C5.02373 12.0132 5.25688 11.9167 5.5 11.9167H11.4583C12.0654 11.9168 12.66 12.0891 13.1731 12.4136C13.6861 12.7382 14.0965 13.2016 14.3567 13.7502C14.6168 14.2987 14.716 14.9097 14.6427 15.5124C14.5694 16.115 14.3266 16.6845 13.9426 17.1547C13.5585 17.6248 13.049 17.9764 12.4731 18.1685C11.8972 18.3606 11.2786 18.3853 10.6892 18.2399C10.0998 18.0944 9.56376 17.7848 9.14335 17.3468C8.72294 16.9089 8.43541 16.3606 8.31417 15.7657C8.26579 15.5275 8.31403 15.2798 8.44829 15.0771C8.58255 14.8744 8.79183 14.7334 9.03008 14.685C9.26834 14.6366 9.51605 14.6849 9.71873 14.8191C9.92141 14.9534 10.0625 15.1627 10.1108 15.4009Z" fill="var(--fill-0, #0A0AFF)"/>
</g>
</svg>
