<svg preserveAspectRatio="none" width="100%" height="100%" overflow="visible" style="display: block;" viewBox="0 0 24 16" fill="none" xmlns="http://www.w3.org/2000/svg">
<g id="Union shadow">
<path id="Vector" d="M17.7669 15.6615H4.85309C3.60035 15.6605 2.39654 15.1504 1.49367 14.2382C0.590804 13.3259 0.0588848 12.0821 0.00926756 10.7672C-0.0403496 9.45226 0.396182 8.16815 1.22748 7.18367C2.05877 6.1992 3.22038 5.59069 4.46911 5.48553C4.64719 4.16464 5.21501 2.93564 6.0927 1.97143C6.97038 1.00722 8.11375 0.356322 9.36196 0.110313C10.6102 -0.135695 11.9004 0.0355662 13.0511 0.600002C14.2018 1.16444 15.1551 2.09364 15.7769 3.25689C16.9173 2.8422 18.1494 2.79375 19.3162 3.11771C20.4829 3.44167 21.5313 4.12337 22.3277 5.07584C23.1241 6.02832 23.6323 7.2084 23.7876 8.46555C23.9429 9.72271 23.7382 11 23.1995 12.1344C22.8835 13.1593 22.2664 14.0527 21.437 14.6864C20.6075 15.32 19.6083 15.6614 18.5826 15.6615H17.7669Z" fill="url(#paint0_linear_4199_5004)"/>
<path id="Vector_2" d="M18.5807 15.5898C19.1015 15.5898 19.6135 15.5025 20.1025 15.3302C20.5754 15.1636 21.0194 14.9205 21.4221 14.6077C21.8202 14.2984 22.1692 13.928 22.4593 13.5067C22.7531 13.0801 22.9799 12.6108 23.1334 12.1118L23.135 12.1067L23.1373 12.1019C23.3415 11.6733 23.4988 11.22 23.6047 10.7544C23.7137 10.2753 23.7689 9.78029 23.7689 9.28302C23.7689 8.85507 23.7279 8.42741 23.6469 8.01191C23.5681 7.60701 23.4504 7.20874 23.2971 6.82816C23.1467 6.45447 22.9604 6.09404 22.7436 5.75688C22.5288 5.42291 22.2821 5.10886 22.0104 4.82344C21.7387 4.53803 21.4397 4.27891 21.1218 4.05328C20.8008 3.8255 20.4577 3.62986 20.102 3.47181C19.7397 3.31083 19.3605 3.1872 18.9751 3.10434C18.5796 3.01932 18.1724 2.97621 17.765 2.97621C17.0905 2.97621 16.4284 3.09283 15.7971 3.32281L15.7438 3.34222L15.7162 3.2906C15.2024 2.33098 14.4551 1.52509 13.555 0.960039C13.0998 0.674278 12.6108 0.453452 12.1015 0.303696C11.5761 0.149199 11.0304 0.070863 10.4795 0.070863C9.73844 0.070863 9.01509 0.210959 8.3295 0.487257C7.66718 0.754172 7.05961 1.13974 6.52365 1.63325C5.99078 2.12392 5.54856 2.70287 5.20928 3.354C4.86168 4.02113 4.63448 4.74125 4.53401 5.49436L4.5265 5.55073L4.47247 5.55517C3.86816 5.60486 3.28674 5.772 2.74436 6.05193C2.21734 6.32394 1.74673 6.69184 1.34561 7.14543C0.521382 8.07745 0.0674591 9.29179 0.0674591 10.5647C0.0674591 11.2432 0.19393 11.9012 0.44336 12.5207C0.563247 12.8184 0.711636 13.1056 0.884405 13.3743C1.05555 13.6404 1.25209 13.8906 1.46858 14.118C1.68507 14.3454 1.92328 14.5519 2.1766 14.7317C2.43234 14.9131 2.70572 15.069 2.98916 15.195C3.57887 15.457 4.20534 15.5898 4.85117 15.5898H17.765H18.5807ZM18.5807 15.6607H17.765H4.85117C2.17195 15.6607 0 13.3791 0 10.5647C0 7.88604 1.96742 5.69007 4.46721 5.48452C4.8807 2.38506 7.4149 0 10.4795 0C12.753 0 14.7346 1.31261 15.775 3.25587C16.3984 3.02873 17.068 2.90535 17.765 2.90535C21.1181 2.90535 23.8364 5.76076 23.8364 9.28302C23.8364 10.3076 23.6064 11.2758 23.1976 12.1336C22.5678 14.1803 20.7388 15.6607 18.5807 15.6607Z" fill="var(--fill-0, white)" fill-opacity="0.5"/>
</g>
<defs>
<linearGradient id="paint0_linear_4199_5004" x1="11.9218" y1="0.000909553" x2="19.4486" y2="17.3247" gradientUnits="userSpaceOnUse">
<stop stop-color="white" stop-opacity="0.604"/>
<stop offset="1" stop-color="white" stop-opacity="0.2"/>
</linearGradient>
</defs>
</svg>
