<svg preserveAspectRatio="none" width="100%" height="100%" overflow="visible" style="display: block;" viewBox="0 0 13 12" fill="none" xmlns="http://www.w3.org/2000/svg">
<g id="Frame 1272628781">
<path id="Vector" d="M12.2702 5.32625C12.2702 5.38554 12.2584 5.44422 12.2353 5.49885C12.2123 5.55348 12.1785 5.60294 12.1361 5.64431C12.0936 5.68568 12.0433 5.71813 11.9881 5.73974C11.9329 5.76135 11.8739 5.77168 11.8147 5.77012L6.72546 5.77012C6.6666 5.77012 6.61015 5.7935 6.56853 5.83512C6.52691 5.87674 6.50353 5.93319 6.50353 5.99205V11.0851C6.50463 11.1785 6.47683 11.2699 6.42394 11.3469C6.37104 11.4238 6.29564 11.4825 6.20808 11.5149C6.10365 11.5518 5.98921 11.5483 5.88722 11.5051C5.78523 11.4619 5.70306 11.3822 5.65685 11.2816L0.770155 0.628758C0.732445 0.546456 0.720803 0.45459 0.73679 0.365482C0.752777 0.276375 0.795628 0.194287 0.859598 0.130227C0.923567 0.0661673 1.00559 0.0232007 1.09468 0.00708771C1.18376 -0.00902526 1.27565 0.00248639 1.358 0.0400801L12.0108 4.92261C12.0882 4.95797 12.1537 5.01481 12.1997 5.08637C12.2457 5.15793 12.2702 5.24119 12.2702 5.32625Z" fill="var(--fill-0, black)"/>
</g>
</svg>
