<svg preserveAspectRatio="none" width="100%" height="100%" overflow="visible" style="display: block;" viewBox="0 0 18 18" fill="none" xmlns="http://www.w3.org/2000/svg">
<g id="Group 1000002799">
<path id="Vector" d="M4.74193 13.5483C4.69668 13.5031 4.66094 13.4493 4.63683 13.39C4.61272 13.3308 4.60073 13.2673 4.60156 13.2033C4.60238 13.1393 4.61602 13.0762 4.64166 13.0175C4.66729 12.9589 4.70441 12.906 4.75082 12.862L8.6344 8.97844C8.67931 8.93352 8.70455 8.8726 8.70455 8.80908C8.70455 8.74556 8.67931 8.68464 8.6344 8.63972L4.74786 4.75319C4.67578 4.68279 4.62723 4.59182 4.60889 4.49275C4.59055 4.39367 4.6033 4.29135 4.6454 4.19981C4.69694 4.09198 4.78692 4.0073 4.89769 3.96241C5.00846 3.91753 5.13201 3.91567 5.24408 3.95721L17.1023 8.35732C17.1938 8.39135 17.2728 8.45257 17.3286 8.53277C17.3844 8.61296 17.4144 8.7083 17.4144 8.806C17.4145 8.9037 17.3847 8.99909 17.329 9.07936C17.2733 9.15964 17.1944 9.22097 17.1029 9.25513L5.24789 13.6584C5.16187 13.6905 5.06845 13.6971 4.97876 13.6776C4.88906 13.6581 4.80685 13.6132 4.74193 13.5483Z" fill="var(--fill-0, black)"/>
</g>
</svg>
