<svg preserveAspectRatio="none" width="100%" height="100%" overflow="visible" style="display: block;" viewBox="0 0 2 3" fill="none" xmlns="http://www.w3.org/2000/svg">
<g id="Group Rain drop">
<path id="Path 8" d="M0.96811 -0.000153234C1.05504 0.000824765 1.93622 1.37671 1.93622 1.9114C1.93622 2.16816 1.83422 2.4144 1.65267 2.59596C1.47111 2.77751 1.22487 2.87951 0.96811 2.87951C0.711351 2.87951 0.465109 2.77751 0.283553 2.59596C0.101997 2.4144 0 2.16816 0 1.9114C0 1.37676 0.881231 -0.00113123 0.96811 -0.000153234Z" fill="var(--fill-0, #42A0F0)"/>
<path id="Ellipse 12" d="M0.231114 2.27347C0.327849 2.30305 0.450791 2.1814 0.505712 2.00176C0.560633 1.82212 0.526736 1.65252 0.430001 1.62294C0.333266 1.59337 0.210324 1.71502 0.155403 1.89466C0.100482 2.0743 0.134379 2.2439 0.231114 2.27347Z" fill="var(--fill-0, white)"/>
</g>
</svg>
