<svg preserveAspectRatio="none" width="100%" height="100%" overflow="visible" style="display: block;" viewBox="0 0 17 17" fill="none" xmlns="http://www.w3.org/2000/svg">
<path id="Vector" fill-rule="evenodd" clip-rule="evenodd" d="M8.35955 16.7191C10.5766 16.7191 12.7029 15.8384 14.2706 14.2706C15.8384 12.7029 16.7191 10.5766 16.7191 8.35955C16.7191 6.14246 15.8384 4.01618 14.2706 2.44846C12.7029 0.880736 10.5766 0 8.35955 0C6.14246 0 4.01618 0.880736 2.44846 2.44846C0.880736 4.01618 0 6.14246 0 8.35955C0 10.5766 0.880736 12.7029 2.44846 14.2706C4.01618 15.8384 6.14246 16.7191 8.35955 16.7191ZM9.09833 5.96349C9.28867 5.76642 9.394 5.50246 9.39162 5.22848C9.38924 4.9545 9.27934 4.69241 9.0856 4.49867C8.89186 4.30493 8.62977 4.19504 8.35579 4.19265C8.08181 4.19027 7.81786 4.2956 7.62078 4.48594L4.48595 7.62078C4.29005 7.81673 4.18 8.08247 4.18 8.35955C4.18 8.63663 4.29005 8.90237 4.48595 9.09833L7.62078 12.2332C7.81786 12.4235 8.08181 12.5288 8.35579 12.5264C8.62977 12.5241 8.89186 12.4142 9.0856 12.2204C9.27934 12.0267 9.38924 11.7646 9.39162 11.4906C9.394 11.2166 9.28867 10.9527 9.09833 10.7556L7.74721 9.40449H11.4944C11.7715 9.40449 12.0373 9.2944 12.2333 9.09844C12.4292 8.90247 12.5393 8.63669 12.5393 8.35955C12.5393 8.08241 12.4292 7.81663 12.2333 7.62066C12.0373 7.4247 11.7715 7.31461 11.4944 7.31461H7.74721L9.09833 5.96349Z" fill="var(--fill-0, #0A0AFF)"/>
</svg>
