<svg preserveAspectRatio="none" width="100%" height="100%" overflow="visible" style="display: block;" viewBox="0 0 2 3" fill="none" xmlns="http://www.w3.org/2000/svg">
<g id="Group Rain drop">
<path id="Path 8" d="M0.968413 7.56866e-06C1.05535 0.000985567 1.93652 1.37687 1.93652 1.91156C1.93652 2.16832 1.83453 2.41456 1.65297 2.59612C1.47141 2.77767 1.22517 2.87967 0.968413 2.87967C0.711654 2.87967 0.465412 2.77767 0.283856 2.59612C0.1023 2.41456 0.000303029 2.16832 0.000303029 1.91156C0.000303029 1.37692 0.881534 -0.00097043 0.968413 7.56866e-06Z" fill="var(--fill-0, #42A0F0)"/>
<path id="Ellipse 12" d="M0.230117 2.27347C0.326852 2.30305 0.449794 2.1814 0.504715 2.00176C0.559636 1.82212 0.525739 1.65252 0.429004 1.62294C0.332269 1.59337 0.209327 1.71502 0.154406 1.89466C0.0994851 2.0743 0.133382 2.2439 0.230117 2.27347Z" fill="var(--fill-0, white)"/>
</g>
</svg>
